<svg xmlns="http://www.w3.org/2000/svg" xmlns:xlink="http://www.w3.org/1999/xlink" width="1800" zoomAndPan="magnify" viewBox="0 0 1350 262.499992" height="350" preserveAspectRatio="xMidYMid meet" version="1.2"><defs/><g id="fcf457f46d"><g style="fill:#0b3d91;fill-opacity:1;"><g transform="translate(7.739741, 207.72931)"><path style="stroke:none" d="M 134.75 -28.03125 L 134.75 0 L 17.890625 0 L 17.890625 -150.921875 L 131.9375 -150.921875 L 131.9375 -122.890625 L 52.609375 -122.890625 L 52.609375 -90.125 L 122.671875 -90.125 L 122.671875 -62.953125 L 52.609375 -62.953125 L 52.609375 -28.03125 Z M 134.75 -28.03125 "/></g></g><g style="fill:#0b3d91;fill-opacity:1;"><g transform="translate(152.399925, 207.72931)"><path style="stroke:none" d="M 156.3125 -150.921875 L 156.3125 0 L 127.625 0 L 52.390625 -91.625 L 52.390625 0 L 17.890625 0 L 17.890625 -150.921875 L 46.78125 -150.921875 L 121.8125 -59.28125 L 121.8125 -150.921875 Z M 156.3125 -150.921875 "/></g></g><g style="fill:#0b3d91;fill-opacity:1;"><g transform="translate(326.595819, 207.72931)"><path style="stroke:none" d="M 119.875 -77.828125 L 151.78125 -77.828125 L 151.78125 -16.59375 C 143.582031 -10.414062 134.09375 -5.671875 123.3125 -2.359375 C 112.539062 0.941406 101.691406 2.59375 90.765625 2.59375 C 75.097656 2.59375 61.007812 -0.75 48.5 -7.4375 C 36 -14.125 26.191406 -23.394531 19.078125 -35.25 C 11.960938 -47.101562 8.40625 -60.503906 8.40625 -75.453125 C 8.40625 -90.398438 11.960938 -103.800781 19.078125 -115.65625 C 26.191406 -127.519531 36.070312 -136.789062 48.71875 -143.46875 C 61.375 -150.15625 75.601562 -153.5 91.40625 -153.5 C 104.632812 -153.5 116.632812 -151.269531 127.40625 -146.8125 C 138.1875 -142.363281 147.242188 -135.898438 154.578125 -127.421875 L 132.15625 -106.71875 C 121.375 -118.070312 108.367188 -123.75 93.140625 -123.75 C 83.503906 -123.75 74.945312 -121.734375 67.46875 -117.703125 C 60 -113.679688 54.179688 -108.003906 50.015625 -100.671875 C 45.847656 -93.347656 43.765625 -84.941406 43.765625 -75.453125 C 43.765625 -66.109375 45.847656 -57.769531 50.015625 -50.4375 C 54.179688 -43.113281 59.960938 -37.40625 67.359375 -33.3125 C 74.765625 -29.21875 83.210938 -27.171875 92.703125 -27.171875 C 102.765625 -27.171875 111.820312 -29.320312 119.875 -33.625 Z M 119.875 -77.828125 "/></g></g><g style="fill:#0b3d91;fill-opacity:1;"><g transform="translate(492.814929, 207.72931)"><path style="stroke:none" d="M 17.890625 -150.921875 L 52.828125 -150.921875 L 52.828125 -28.453125 L 128.5 -28.453125 L 128.5 0 L 17.890625 0 Z M 17.890625 -150.921875 "/></g></g><g style="fill:#0b3d91;fill-opacity:1;"><g transform="translate(623.030635, 207.72931)"><path style="stroke:none" d="M 17.890625 -150.921875 L 52.828125 -150.921875 L 52.828125 0 L 17.890625 0 Z M 17.890625 -150.921875 "/></g></g><g style="fill:#0b3d91;fill-opacity:1;"><g transform="translate(693.743838, 207.72931)"><path style="stroke:none" d="M 67.484375 2.59375 C 55.554688 2.59375 44.019531 0.976562 32.875 -2.25 C 21.738281 -5.488281 12.789062 -9.695312 6.03125 -14.875 L 17.890625 -41.171875 C 24.359375 -36.429688 32.046875 -32.625 40.953125 -29.75 C 49.867188 -26.875 58.785156 -25.4375 67.703125 -25.4375 C 77.617188 -25.4375 84.945312 -26.910156 89.6875 -29.859375 C 94.425781 -32.804688 96.796875 -36.722656 96.796875 -41.609375 C 96.796875 -45.203125 95.394531 -48.179688 92.59375 -50.546875 C 89.789062 -52.921875 86.195312 -54.828125 81.8125 -56.265625 C 77.4375 -57.703125 71.507812 -59.285156 64.03125 -61.015625 C 52.53125 -63.742188 43.113281 -66.472656 35.78125 -69.203125 C 28.457031 -71.929688 22.171875 -76.3125 16.921875 -82.34375 C 11.679688 -88.382812 9.0625 -96.4375 9.0625 -106.5 C 9.0625 -115.269531 11.429688 -123.210938 16.171875 -130.328125 C 20.910156 -137.441406 28.054688 -143.082031 37.609375 -147.25 C 47.171875 -151.414062 58.851562 -153.5 72.65625 -153.5 C 82.28125 -153.5 91.691406 -152.347656 100.890625 -150.046875 C 110.097656 -147.753906 118.148438 -144.453125 125.046875 -140.140625 L 114.265625 -113.625 C 100.328125 -121.519531 86.382812 -125.46875 72.4375 -125.46875 C 62.664062 -125.46875 55.441406 -123.882812 50.765625 -120.71875 C 46.097656 -117.5625 43.765625 -113.398438 43.765625 -108.234375 C 43.765625 -103.054688 46.457031 -99.207031 51.84375 -96.6875 C 57.238281 -94.175781 65.46875 -91.695312 76.53125 -89.25 C 88.03125 -86.519531 97.445312 -83.789062 104.78125 -81.0625 C 112.113281 -78.332031 118.398438 -74.019531 123.640625 -68.125 C 128.890625 -62.226562 131.515625 -54.253906 131.515625 -44.203125 C 131.515625 -35.578125 129.101562 -27.707031 124.28125 -20.59375 C 119.46875 -13.476562 112.242188 -7.832031 102.609375 -3.65625 C 92.984375 0.507812 81.273438 2.59375 67.484375 2.59375 Z M 67.484375 2.59375 "/></g></g><g style="fill:#0b3d91;fill-opacity:1;"><g transform="translate(831.289574, 207.72931)"><path style="stroke:none" d="M 156.3125 -150.921875 L 156.3125 0 L 121.375 0 L 121.375 -61.875 L 52.828125 -61.875 L 52.828125 0 L 17.890625 0 L 17.890625 -150.921875 L 52.828125 -150.921875 L 52.828125 -91.40625 L 121.375 -91.40625 L 121.375 -150.921875 Z M 156.3125 -150.921875 "/></g></g><g style="fill:#ff6f61;fill-opacity:1;"><g transform="translate(1005.495433, 207.72931)"><path style="stroke:none" d="M 90.125 2.59375 C 74.738281 2.59375 60.828125 -0.75 48.390625 -7.4375 C 35.960938 -14.125 26.191406 -23.394531 19.078125 -35.25 C 11.960938 -47.101562 8.40625 -60.503906 8.40625 -75.453125 C 8.40625 -90.398438 11.960938 -103.800781 19.078125 -115.65625 C 26.191406 -127.519531 35.960938 -136.789062 48.390625 -143.46875 C 60.828125 -150.15625 74.804688 -153.5 90.328125 -153.5 C 103.410156 -153.5 115.234375 -151.195312 125.796875 -146.59375 C 136.359375 -142 145.234375 -135.390625 152.421875 -126.765625 L 130 -106.078125 C 119.800781 -117.859375 107.15625 -123.75 92.0625 -123.75 C 82.71875 -123.75 74.378906 -121.703125 67.046875 -117.609375 C 59.710938 -113.515625 54 -107.800781 49.90625 -100.46875 C 45.8125 -93.132812 43.765625 -84.796875 43.765625 -75.453125 C 43.765625 -66.109375 45.8125 -57.769531 49.90625 -50.4375 C 54 -43.113281 59.710938 -37.40625 67.046875 -33.3125 C 74.378906 -29.21875 82.71875 -27.171875 92.0625 -27.171875 C 107.15625 -27.171875 119.800781 -33.132812 130 -45.0625 L 152.421875 -24.359375 C 145.234375 -15.585938 136.320312 -8.898438 125.6875 -4.296875 C 115.050781 0.296875 103.195312 2.59375 90.125 2.59375 Z M 90.125 2.59375 "/></g></g><g style="fill:#ff6f61;fill-opacity:1;"><g transform="translate(1160.288324, 207.72931)"><path style="stroke:none" d="M 90.984375 2.59375 C 75.316406 2.59375 61.191406 -0.78125 48.609375 -7.53125 C 36.035156 -14.289062 26.191406 -23.597656 19.078125 -35.453125 C 11.960938 -47.316406 8.40625 -60.648438 8.40625 -75.453125 C 8.40625 -90.253906 11.960938 -103.582031 19.078125 -115.4375 C 26.191406 -127.300781 36.035156 -136.609375 48.609375 -143.359375 C 61.191406 -150.117188 75.316406 -153.5 90.984375 -153.5 C 106.648438 -153.5 120.734375 -150.117188 133.234375 -143.359375 C 145.742188 -136.609375 155.585938 -127.300781 162.765625 -115.4375 C 169.953125 -103.582031 173.546875 -90.253906 173.546875 -75.453125 C 173.546875 -60.648438 169.953125 -47.316406 162.765625 -35.453125 C 155.585938 -23.597656 145.742188 -14.289062 133.234375 -7.53125 C 120.734375 -0.78125 106.648438 2.59375 90.984375 2.59375 Z M 90.984375 -27.171875 C 99.890625 -27.171875 107.9375 -29.21875 115.125 -33.3125 C 122.3125 -37.40625 127.953125 -43.113281 132.046875 -50.4375 C 136.148438 -57.769531 138.203125 -66.109375 138.203125 -75.453125 C 138.203125 -84.796875 136.148438 -93.132812 132.046875 -100.46875 C 127.953125 -107.800781 122.3125 -113.515625 115.125 -117.609375 C 107.9375 -121.703125 99.890625 -123.75 90.984375 -123.75 C 82.066406 -123.75 74.015625 -121.703125 66.828125 -117.609375 C 59.640625 -113.515625 54 -107.800781 49.90625 -100.46875 C 45.8125 -93.132812 43.765625 -84.796875 43.765625 -75.453125 C 43.765625 -66.109375 45.8125 -57.769531 49.90625 -50.4375 C 54 -43.113281 59.640625 -37.40625 66.828125 -33.3125 C 74.015625 -29.21875 82.066406 -27.171875 90.984375 -27.171875 Z M 90.984375 -27.171875 "/></g></g></g></svg>