<svg xmlns="http://www.w3.org/2000/svg" xmlns:xlink="http://www.w3.org/1999/xlink" width="500" zoomAndPan="magnify" viewBox="0 0 375 374.999991" height="500" preserveAspectRatio="xMidYMid meet" version="1.2"><defs/><g id="cd7419c17a"><rect x="0" width="375" y="0" height="374.999991" style="fill:#ffffff;fill-opacity:1;stroke:none;"/><rect x="0" width="375" y="0" height="374.999991" style="fill:#ffffff;fill-opacity:1;stroke:none;"/><g style="fill:#1e3a8a;fill-opacity:1;"><g transform="translate(8.56641, 208.874986)"><path style="stroke:none" d="M 38.125 -7.9375 L 38.125 0 L 5.0625 0 L 5.0625 -42.703125 L 37.328125 -42.703125 L 37.328125 -34.765625 L 14.890625 -34.765625 L 14.890625 -25.5 L 34.703125 -25.5 L 34.703125 -17.8125 L 14.890625 -17.8125 L 14.890625 -7.9375 Z M 38.125 -7.9375 "/></g></g><g style="fill:#1e3a8a;fill-opacity:1;"><g transform="translate(49.494806, 208.874986)"><path style="stroke:none" d="M 44.21875 -42.703125 L 44.21875 0 L 36.109375 0 L 14.828125 -25.921875 L 14.828125 0 L 5.0625 0 L 5.0625 -42.703125 L 13.234375 -42.703125 L 34.46875 -16.78125 L 34.46875 -42.703125 Z M 44.21875 -42.703125 "/></g></g><g style="fill:#1e3a8a;fill-opacity:1;"><g transform="translate(98.779665, 208.874986)"><path style="stroke:none" d="M 33.921875 -22.015625 L 42.9375 -22.015625 L 42.9375 -4.703125 C 40.625 -2.953125 37.941406 -1.609375 34.890625 -0.671875 C 31.835938 0.265625 28.769531 0.734375 25.6875 0.734375 C 21.25 0.734375 17.257812 -0.207031 13.71875 -2.09375 C 10.1875 -3.988281 7.410156 -6.613281 5.390625 -9.96875 C 3.378906 -13.320312 2.375 -17.113281 2.375 -21.34375 C 2.375 -25.570312 3.378906 -29.363281 5.390625 -32.71875 C 7.410156 -36.082031 10.207031 -38.707031 13.78125 -40.59375 C 17.363281 -42.488281 21.390625 -43.4375 25.859375 -43.4375 C 29.597656 -43.4375 32.992188 -42.804688 36.046875 -41.546875 C 39.097656 -40.285156 41.660156 -38.453125 43.734375 -36.046875 L 37.390625 -30.1875 C 34.335938 -33.40625 30.660156 -35.015625 26.359375 -35.015625 C 23.628906 -35.015625 21.207031 -34.441406 19.09375 -33.296875 C 16.976562 -32.160156 15.332031 -30.554688 14.15625 -28.484375 C 12.976562 -26.410156 12.390625 -24.03125 12.390625 -21.34375 C 12.390625 -18.707031 12.976562 -16.347656 14.15625 -14.265625 C 15.332031 -12.191406 16.96875 -10.578125 19.0625 -9.421875 C 21.15625 -8.265625 23.546875 -7.6875 26.234375 -7.6875 C 29.078125 -7.6875 31.640625 -8.296875 33.921875 -9.515625 Z M 33.921875 -22.015625 "/></g></g><g style="fill:#1e3a8a;fill-opacity:1;"><g transform="translate(145.80767, 208.874986)"><path style="stroke:none" d="M 5.0625 -42.703125 L 14.9375 -42.703125 L 14.9375 -8.046875 L 36.359375 -8.046875 L 36.359375 0 L 5.0625 0 Z M 5.0625 -42.703125 "/></g></g><g style="fill:#1e3a8a;fill-opacity:1;"><g transform="translate(182.649323, 208.874986)"><path style="stroke:none" d="M 5.0625 -42.703125 L 14.9375 -42.703125 L 14.9375 0 L 5.0625 0 Z M 5.0625 -42.703125 "/></g></g><g style="fill:#1e3a8a;fill-opacity:1;"><g transform="translate(202.656044, 208.874986)"><path style="stroke:none" d="M 19.09375 0.734375 C 15.71875 0.734375 12.453125 0.273438 9.296875 -0.640625 C 6.148438 -1.554688 3.617188 -2.742188 1.703125 -4.203125 L 5.0625 -11.65625 C 6.894531 -10.3125 9.070312 -9.234375 11.59375 -8.421875 C 14.113281 -7.609375 16.632812 -7.203125 19.15625 -7.203125 C 21.957031 -7.203125 24.03125 -7.617188 25.375 -8.453125 C 26.71875 -9.285156 27.390625 -10.390625 27.390625 -11.765625 C 27.390625 -12.785156 26.992188 -13.628906 26.203125 -14.296875 C 25.410156 -14.972656 24.390625 -15.515625 23.140625 -15.921875 C 21.898438 -16.328125 20.222656 -16.773438 18.109375 -17.265625 C 14.859375 -18.035156 12.195312 -18.804688 10.125 -19.578125 C 8.050781 -20.347656 6.269531 -21.585938 4.78125 -23.296875 C 3.300781 -25.003906 2.5625 -27.285156 2.5625 -30.140625 C 2.5625 -32.617188 3.234375 -34.863281 4.578125 -36.875 C 5.921875 -38.882812 7.941406 -40.476562 10.640625 -41.65625 C 13.347656 -42.84375 16.65625 -43.4375 20.5625 -43.4375 C 23.28125 -43.4375 25.941406 -43.109375 28.546875 -42.453125 C 31.148438 -41.804688 33.425781 -40.875 35.375 -39.65625 L 32.328125 -32.140625 C 28.378906 -34.378906 24.4375 -35.5 20.5 -35.5 C 17.726562 -35.5 15.679688 -35.050781 14.359375 -34.15625 C 13.046875 -33.257812 12.390625 -32.082031 12.390625 -30.625 C 12.390625 -29.15625 13.148438 -28.066406 14.671875 -27.359375 C 16.191406 -26.648438 18.519531 -25.945312 21.65625 -25.25 C 24.90625 -24.476562 27.566406 -23.707031 29.640625 -22.9375 C 31.710938 -22.164062 33.488281 -20.945312 34.96875 -19.28125 C 36.457031 -17.613281 37.203125 -15.351562 37.203125 -12.5 C 37.203125 -10.0625 36.519531 -7.835938 35.15625 -5.828125 C 33.800781 -3.816406 31.757812 -2.21875 29.03125 -1.03125 C 26.3125 0.144531 23 0.734375 19.09375 0.734375 Z M 19.09375 0.734375 "/></g></g><g style="fill:#1e3a8a;fill-opacity:1;"><g transform="translate(241.571561, 208.874986)"><path style="stroke:none" d="M 44.21875 -42.703125 L 44.21875 0 L 34.34375 0 L 34.34375 -17.5 L 14.9375 -17.5 L 14.9375 0 L 5.0625 0 L 5.0625 -42.703125 L 14.9375 -42.703125 L 14.9375 -25.859375 L 34.34375 -25.859375 L 34.34375 -42.703125 Z M 44.21875 -42.703125 "/></g></g><g style="fill:#e63946;fill-opacity:1;"><g transform="translate(290.85936, 208.874986)"><path style="stroke:none" d="M 20.25 0.484375 C 16.75 0.484375 13.609375 -0.234375 10.828125 -1.671875 C 8.046875 -3.117188 5.867188 -5.125 4.296875 -7.6875 C 2.734375 -10.25 1.953125 -13.15625 1.953125 -16.40625 C 1.953125 -19.65625 2.734375 -22.5625 4.296875 -25.125 C 5.867188 -27.6875 8.046875 -29.691406 10.828125 -31.140625 C 13.609375 -32.585938 16.75 -33.3125 20.25 -33.3125 C 23.707031 -33.3125 26.726562 -32.585938 29.3125 -31.140625 C 31.894531 -29.691406 33.773438 -27.628906 34.953125 -24.953125 L 27.578125 -20.984375 C 25.867188 -23.992188 23.40625 -25.5 20.1875 -25.5 C 17.707031 -25.5 15.65625 -24.6875 14.03125 -23.0625 C 12.40625 -21.4375 11.59375 -19.21875 11.59375 -16.40625 C 11.59375 -13.601562 12.40625 -11.382812 14.03125 -9.75 C 15.65625 -8.125 17.707031 -7.3125 20.1875 -7.3125 C 23.445312 -7.3125 25.910156 -8.816406 27.578125 -11.828125 L 34.953125 -7.8125 C 33.773438 -5.207031 31.894531 -3.171875 29.3125 -1.703125 C 26.726562 -0.242188 23.707031 0.484375 20.25 0.484375 Z M 20.25 0.484375 "/></g></g><g style="fill:#e63946;fill-opacity:1;"><g transform="translate(326.481028, 208.874986)"><path style="stroke:none" d="M 20.015625 0.484375 C 16.554688 0.484375 13.453125 -0.234375 10.703125 -1.671875 C 7.960938 -3.117188 5.816406 -5.125 4.265625 -7.6875 C 2.722656 -10.25 1.953125 -13.15625 1.953125 -16.40625 C 1.953125 -19.65625 2.722656 -22.5625 4.265625 -25.125 C 5.816406 -27.6875 7.960938 -29.691406 10.703125 -31.140625 C 13.453125 -32.585938 16.554688 -33.3125 20.015625 -33.3125 C 23.460938 -33.3125 26.546875 -32.585938 29.265625 -31.140625 C 31.992188 -29.691406 34.128906 -27.6875 35.671875 -25.125 C 37.222656 -22.5625 38 -19.65625 38 -16.40625 C 38 -13.15625 37.222656 -10.25 35.671875 -7.6875 C 34.128906 -5.125 31.992188 -3.117188 29.265625 -1.671875 C 26.546875 -0.234375 23.460938 0.484375 20.015625 0.484375 Z M 20.015625 -7.3125 C 22.453125 -7.3125 24.453125 -8.132812 26.015625 -9.78125 C 27.578125 -11.4375 28.359375 -13.644531 28.359375 -16.40625 C 28.359375 -19.175781 27.578125 -21.382812 26.015625 -23.03125 C 24.453125 -24.675781 22.453125 -25.5 20.015625 -25.5 C 17.566406 -25.5 15.550781 -24.675781 13.96875 -23.03125 C 12.382812 -21.382812 11.59375 -19.175781 11.59375 -16.40625 C 11.59375 -13.644531 12.382812 -11.4375 13.96875 -9.78125 C 15.550781 -8.132812 17.566406 -7.3125 20.015625 -7.3125 Z M 20.015625 -7.3125 "/></g></g></g></svg>