<svg xmlns="http://www.w3.org/2000/svg" xmlns:xlink="http://www.w3.org/1999/xlink" width="2048" zoomAndPan="magnify" viewBox="0 0 1536 374.999991" height="500" preserveAspectRatio="xMidYMid meet" version="1.2"><defs/><g id="797a904e59"><g style="fill:#1e3a8a;fill-opacity:1;"><g transform="translate(-9.229514, 234.860535)"><path style="stroke:none" d="M 154 -32.03125 L 154 0 L 20.453125 0 L 20.453125 -172.46875 L 150.796875 -172.46875 L 150.796875 -140.4375 L 60.125 -140.4375 L 60.125 -102.984375 L 140.203125 -102.984375 L 140.203125 -71.953125 L 60.125 -71.953125 L 60.125 -32.03125 Z M 154 -32.03125 "/></g></g><g style="fill:#1e3a8a;fill-opacity:1;"><g transform="translate(156.097865, 234.860535)"><path style="stroke:none" d="M 178.640625 -172.46875 L 178.640625 0 L 145.859375 0 L 59.875 -104.71875 L 59.875 0 L 20.453125 0 L 20.453125 -172.46875 L 53.46875 -172.46875 L 139.203125 -67.75 L 139.203125 -172.46875 Z M 178.640625 -172.46875 "/></g></g><g style="fill:#1e3a8a;fill-opacity:1;"><g transform="translate(355.180627, 234.860535)"><path style="stroke:none" d="M 137 -88.953125 L 173.453125 -88.953125 L 173.453125 -18.96875 C 164.097656 -11.90625 153.257812 -6.484375 140.9375 -2.703125 C 128.613281 1.066406 116.210938 2.953125 103.734375 2.953125 C 85.828125 2.953125 69.726562 -0.863281 55.4375 -8.5 C 41.144531 -16.132812 29.929688 -26.726562 21.796875 -40.28125 C 13.671875 -53.832031 9.609375 -69.148438 9.609375 -86.234375 C 9.609375 -103.316406 13.671875 -118.632812 21.796875 -132.1875 C 29.929688 -145.738281 41.222656 -156.332031 55.671875 -163.96875 C 70.128906 -171.613281 86.394531 -175.4375 104.46875 -175.4375 C 119.582031 -175.4375 133.296875 -172.890625 145.609375 -167.796875 C 157.929688 -162.703125 168.28125 -155.304688 176.65625 -145.609375 L 151.03125 -121.96875 C 138.71875 -134.9375 123.851562 -141.421875 106.4375 -141.421875 C 95.4375 -141.421875 85.664062 -139.117188 77.125 -134.515625 C 68.582031 -129.921875 61.925781 -123.4375 57.15625 -115.0625 C 52.394531 -106.6875 50.015625 -97.078125 50.015625 -86.234375 C 50.015625 -75.554688 52.394531 -66.03125 57.15625 -57.65625 C 61.925781 -49.28125 68.539062 -42.75 77 -38.0625 C 85.457031 -33.382812 95.109375 -31.046875 105.953125 -31.046875 C 117.441406 -31.046875 127.789062 -33.507812 137 -38.4375 Z M 137 -88.953125 "/></g></g><g style="fill:#1e3a8a;fill-opacity:1;"><g transform="translate(545.146975, 234.860535)"><path style="stroke:none" d="M 20.453125 -172.46875 L 60.359375 -172.46875 L 60.359375 -32.53125 L 146.84375 -32.53125 L 146.84375 0 L 20.453125 0 Z M 20.453125 -172.46875 "/></g></g><g style="fill:#1e3a8a;fill-opacity:1;"><g transform="translate(693.966255, 234.860535)"><path style="stroke:none" d="M 20.453125 -172.46875 L 60.359375 -172.46875 L 60.359375 0 L 20.453125 0 Z M 20.453125 -172.46875 "/></g></g><g style="fill:#1e3a8a;fill-opacity:1;"><g transform="translate(774.782, 234.860535)"><path style="stroke:none" d="M 77.125 2.953125 C 63.488281 2.953125 50.304688 1.109375 37.578125 -2.578125 C 24.847656 -6.273438 14.625 -11.082031 6.90625 -17 L 20.453125 -47.0625 C 27.835938 -41.644531 36.625 -37.289062 46.8125 -34 C 57 -30.71875 67.179688 -29.078125 77.359375 -29.078125 C 88.703125 -29.078125 97.082031 -30.757812 102.5 -34.125 C 107.914062 -37.488281 110.625 -41.960938 110.625 -47.546875 C 110.625 -51.660156 109.019531 -55.070312 105.8125 -57.78125 C 102.613281 -60.488281 98.507812 -62.660156 93.5 -64.296875 C 88.488281 -65.941406 81.710938 -67.753906 73.171875 -69.734375 C 60.035156 -72.847656 49.273438 -75.960938 40.890625 -79.078125 C 32.515625 -82.203125 25.328125 -87.210938 19.328125 -94.109375 C 13.335938 -101.015625 10.34375 -110.21875 10.34375 -121.71875 C 10.34375 -131.738281 13.050781 -140.8125 18.46875 -148.9375 C 23.894531 -157.070312 32.066406 -163.519531 42.984375 -168.28125 C 53.910156 -173.050781 67.257812 -175.4375 83.03125 -175.4375 C 94.039062 -175.4375 104.800781 -174.117188 115.3125 -171.484375 C 125.820312 -168.859375 135.019531 -165.082031 142.90625 -160.15625 L 130.59375 -129.84375 C 114.65625 -138.882812 98.71875 -143.40625 82.78125 -143.40625 C 71.613281 -143.40625 63.359375 -141.597656 58.015625 -137.984375 C 52.679688 -134.367188 50.015625 -129.601562 50.015625 -123.6875 C 50.015625 -117.769531 53.09375 -113.375 59.25 -110.5 C 65.414062 -107.625 74.820312 -104.789062 87.46875 -102 C 100.613281 -98.882812 111.375 -95.765625 119.75 -92.640625 C 128.125 -89.523438 135.304688 -84.597656 141.296875 -77.859375 C 147.296875 -71.117188 150.296875 -62.003906 150.296875 -50.515625 C 150.296875 -40.660156 147.546875 -31.664062 142.046875 -23.53125 C 136.546875 -15.394531 128.289062 -8.945312 117.28125 -4.1875 C 106.28125 0.570312 92.894531 2.953125 77.125 2.953125 Z M 77.125 2.953125 "/></g></g><g style="fill:#1e3a8a;fill-opacity:1;"><g transform="translate(931.978494, 234.860535)"><path style="stroke:none" d="M 178.640625 -172.46875 L 178.640625 0 L 138.71875 0 L 138.71875 -70.71875 L 60.359375 -70.71875 L 60.359375 0 L 20.453125 0 L 20.453125 -172.46875 L 60.359375 -172.46875 L 60.359375 -104.46875 L 138.71875 -104.46875 L 138.71875 -172.46875 Z M 178.640625 -172.46875 "/></g></g><g style="fill:#e63946;fill-opacity:1;"><g transform="translate(1131.063384, 234.860535)"><path style="stroke:none" d="M 102.984375 2.953125 C 85.410156 2.953125 69.519531 -0.863281 55.3125 -8.5 C 41.101562 -16.132812 29.929688 -26.726562 21.796875 -40.28125 C 13.671875 -53.832031 9.609375 -69.148438 9.609375 -86.234375 C 9.609375 -103.316406 13.671875 -118.632812 21.796875 -132.1875 C 29.929688 -145.738281 41.101562 -156.332031 55.3125 -163.96875 C 69.519531 -171.613281 85.492188 -175.4375 103.234375 -175.4375 C 118.179688 -175.4375 131.691406 -172.804688 143.765625 -167.546875 C 155.835938 -162.285156 165.984375 -154.726562 174.203125 -144.875 L 148.578125 -121.21875 C 136.910156 -134.6875 122.453125 -141.421875 105.203125 -141.421875 C 94.523438 -141.421875 85 -139.082031 76.625 -134.40625 C 68.25 -129.726562 61.71875 -123.195312 57.03125 -114.8125 C 52.351562 -106.4375 50.015625 -96.910156 50.015625 -86.234375 C 50.015625 -75.554688 52.351562 -66.03125 57.03125 -57.65625 C 61.71875 -49.28125 68.25 -42.75 76.625 -38.0625 C 85 -33.382812 94.523438 -31.046875 105.203125 -31.046875 C 122.453125 -31.046875 136.910156 -37.863281 148.578125 -51.5 L 174.203125 -27.84375 C 165.984375 -17.820312 155.796875 -10.179688 143.640625 -4.921875 C 131.484375 0.328125 117.929688 2.953125 102.984375 2.953125 Z M 102.984375 2.953125 "/></g></g><g style="fill:#e63946;fill-opacity:1;"><g transform="translate(1307.971107, 234.860535)"><path style="stroke:none" d="M 103.984375 2.953125 C 86.078125 2.953125 69.9375 -0.90625 55.5625 -8.625 C 41.1875 -16.34375 29.929688 -26.976562 21.796875 -40.53125 C 13.671875 -54.082031 9.609375 -69.316406 9.609375 -86.234375 C 9.609375 -103.148438 13.671875 -118.382812 21.796875 -131.9375 C 29.929688 -145.488281 41.1875 -156.125 55.5625 -163.84375 C 69.9375 -171.570312 86.078125 -175.4375 103.984375 -175.4375 C 121.878906 -175.4375 137.972656 -171.570312 152.265625 -163.84375 C 166.554688 -156.125 177.804688 -145.488281 186.015625 -131.9375 C 194.234375 -118.382812 198.34375 -103.148438 198.34375 -86.234375 C 198.34375 -69.316406 194.234375 -54.082031 186.015625 -40.53125 C 177.804688 -26.976562 166.554688 -16.34375 152.265625 -8.625 C 137.972656 -0.90625 121.878906 2.953125 103.984375 2.953125 Z M 103.984375 -31.046875 C 114.160156 -31.046875 123.351562 -33.382812 131.5625 -38.0625 C 139.78125 -42.75 146.226562 -49.28125 150.90625 -57.65625 C 155.59375 -66.03125 157.9375 -75.554688 157.9375 -86.234375 C 157.9375 -96.910156 155.59375 -106.4375 150.90625 -114.8125 C 146.226562 -123.195312 139.78125 -129.726562 131.5625 -134.40625 C 123.351562 -139.082031 114.160156 -141.421875 103.984375 -141.421875 C 93.796875 -141.421875 84.59375 -139.082031 76.375 -134.40625 C 68.164062 -129.726562 61.71875 -123.195312 57.03125 -114.8125 C 52.351562 -106.4375 50.015625 -96.910156 50.015625 -86.234375 C 50.015625 -75.554688 52.351562 -66.03125 57.03125 -57.65625 C 61.71875 -49.28125 68.164062 -42.75 76.375 -38.0625 C 84.59375 -33.382812 93.796875 -31.046875 103.984375 -31.046875 Z M 103.984375 -31.046875 "/></g></g></g></svg>