<svg xmlns="http://www.w3.org/2000/svg" xmlns:xlink="http://www.w3.org/1999/xlink" width="2048" zoomAndPan="magnify" viewBox="0 0 1536 374.999991" height="500" preserveAspectRatio="xMidYMid meet" version="1.2"><defs/><g id="48d29a473f"><rect x="0" width="1536" y="0" height="374.999991" style="fill:#ffffff;fill-opacity:1;stroke:none;"/><rect x="0" width="1536" y="0" height="374.999991" style="fill:#ffffff;fill-opacity:1;stroke:none;"/><g style="fill:#1e3a8a;fill-opacity:1;"><g transform="translate(1.20705, 280.124982)"><path style="stroke:none" d="M 163.375 -33.984375 L 163.375 0 L 21.703125 0 L 21.703125 -182.96875 L 159.96875 -182.96875 L 159.96875 -149 L 63.78125 -149 L 63.78125 -109.265625 L 148.734375 -109.265625 L 148.734375 -76.328125 L 63.78125 -76.328125 L 63.78125 -33.984375 Z M 163.375 -33.984375 "/></g></g><g style="fill:#1e3a8a;fill-opacity:1;"><g transform="translate(176.599406, 280.124982)"><path style="stroke:none" d="M 189.515625 -182.96875 L 189.515625 0 L 154.75 0 L 63.515625 -111.09375 L 63.515625 0 L 21.703125 0 L 21.703125 -182.96875 L 56.71875 -182.96875 L 147.6875 -71.875 L 147.6875 -182.96875 Z M 189.515625 -182.96875 "/></g></g><g style="fill:#1e3a8a;fill-opacity:1;"><g transform="translate(387.802122, 280.124982)"><path style="stroke:none" d="M 145.328125 -94.359375 L 184.015625 -94.359375 L 184.015625 -20.125 C 174.085938 -12.632812 162.585938 -6.882812 149.515625 -2.875 C 136.441406 1.132812 123.285156 3.140625 110.046875 3.140625 C 91.046875 3.140625 73.96875 -0.910156 58.8125 -9.015625 C 43.65625 -17.117188 31.757812 -28.359375 23.125 -42.734375 C 14.5 -57.109375 10.1875 -73.359375 10.1875 -91.484375 C 10.1875 -109.609375 14.5 -125.859375 23.125 -140.234375 C 31.757812 -154.609375 43.742188 -165.847656 59.078125 -173.953125 C 74.410156 -182.054688 91.660156 -186.109375 110.828125 -186.109375 C 126.859375 -186.109375 141.410156 -183.40625 154.484375 -178 C 167.554688 -172.601562 178.535156 -164.765625 187.421875 -154.484375 L 160.234375 -129.390625 C 147.160156 -143.148438 131.390625 -150.03125 112.921875 -150.03125 C 101.242188 -150.03125 90.875 -147.59375 81.8125 -142.71875 C 72.75 -137.84375 65.691406 -130.957031 60.640625 -122.0625 C 55.585938 -113.175781 53.0625 -102.984375 53.0625 -91.484375 C 53.0625 -80.160156 55.585938 -70.050781 60.640625 -61.15625 C 65.691406 -52.269531 72.703125 -45.34375 81.671875 -40.375 C 90.648438 -35.414062 100.890625 -32.9375 112.390625 -32.9375 C 124.597656 -32.9375 135.578125 -35.550781 145.328125 -40.78125 Z M 145.328125 -94.359375 "/></g></g><g style="fill:#1e3a8a;fill-opacity:1;"><g transform="translate(589.333483, 280.124982)"><path style="stroke:none" d="M 21.703125 -182.96875 L 64.046875 -182.96875 L 64.046875 -34.5 L 155.78125 -34.5 L 155.78125 0 L 21.703125 0 Z M 21.703125 -182.96875 "/></g></g><g style="fill:#1e3a8a;fill-opacity:1;"><g transform="translate(747.212733, 280.124982)"><path style="stroke:none" d="M 21.703125 -182.96875 L 64.046875 -182.96875 L 64.046875 0 L 21.703125 0 Z M 21.703125 -182.96875 "/></g></g><g style="fill:#1e3a8a;fill-opacity:1;"><g transform="translate(832.948476, 280.124982)"><path style="stroke:none" d="M 81.8125 3.140625 C 67.351562 3.140625 53.367188 1.179688 39.859375 -2.734375 C 26.359375 -6.660156 15.507812 -11.757812 7.3125 -18.03125 L 21.703125 -49.921875 C 29.535156 -44.171875 38.851562 -39.550781 49.65625 -36.0625 C 60.46875 -32.582031 71.273438 -30.84375 82.078125 -30.84375 C 94.097656 -30.84375 102.984375 -32.628906 108.734375 -36.203125 C 114.484375 -39.773438 117.359375 -44.523438 117.359375 -50.453125 C 117.359375 -54.804688 115.660156 -58.421875 112.265625 -61.296875 C 108.867188 -64.171875 104.507812 -66.476562 99.1875 -68.21875 C 93.875 -69.96875 86.691406 -71.882812 77.640625 -73.96875 C 63.691406 -77.28125 52.273438 -80.59375 43.390625 -83.90625 C 34.503906 -87.21875 26.878906 -92.53125 20.515625 -99.84375 C 14.160156 -107.164062 10.984375 -116.925781 10.984375 -129.125 C 10.984375 -139.757812 13.859375 -149.390625 19.609375 -158.015625 C 25.359375 -166.640625 34.023438 -173.476562 45.609375 -178.53125 C 57.203125 -183.582031 71.363281 -186.109375 88.09375 -186.109375 C 99.769531 -186.109375 111.179688 -184.710938 122.328125 -181.921875 C 133.484375 -179.140625 143.242188 -175.132812 151.609375 -169.90625 L 138.53125 -137.75 C 121.632812 -147.332031 104.734375 -152.125 87.828125 -152.125 C 75.972656 -152.125 67.210938 -150.207031 61.546875 -146.375 C 55.890625 -142.539062 53.0625 -137.488281 53.0625 -131.21875 C 53.0625 -124.945312 56.328125 -120.285156 62.859375 -117.234375 C 69.398438 -114.179688 79.378906 -111.175781 92.796875 -108.21875 C 106.734375 -104.90625 118.144531 -101.59375 127.03125 -98.28125 C 135.914062 -94.96875 143.539062 -89.738281 149.90625 -82.59375 C 156.269531 -75.445312 159.453125 -65.773438 159.453125 -53.578125 C 159.453125 -43.128906 156.53125 -33.59375 150.6875 -24.96875 C 144.851562 -16.34375 136.097656 -9.5 124.421875 -4.4375 C 112.742188 0.613281 98.539062 3.140625 81.8125 3.140625 Z M 81.8125 3.140625 "/></g></g><g style="fill:#1e3a8a;fill-opacity:1;"><g transform="translate(999.714977, 280.124982)"><path style="stroke:none" d="M 189.515625 -182.96875 L 189.515625 0 L 147.15625 0 L 147.15625 -75.015625 L 64.046875 -75.015625 L 64.046875 0 L 21.703125 0 L 21.703125 -182.96875 L 64.046875 -182.96875 L 64.046875 -110.828125 L 147.15625 -110.828125 L 147.15625 -182.96875 Z M 189.515625 -182.96875 "/></g></g><g style="fill:#e63946;fill-opacity:1;"><g transform="translate(1210.921818, 280.124982)"><path style="stroke:none" d="M 86.78125 2.09375 C 71.789062 2.09375 58.328125 -1 46.390625 -7.1875 C 34.453125 -13.375 25.128906 -21.957031 18.421875 -32.9375 C 11.710938 -43.914062 8.359375 -56.375 8.359375 -70.3125 C 8.359375 -84.25 11.710938 -96.707031 18.421875 -107.6875 C 25.128906 -118.664062 34.453125 -127.25 46.390625 -133.4375 C 58.328125 -139.625 71.789062 -142.71875 86.78125 -142.71875 C 101.59375 -142.71875 114.53125 -139.625 125.59375 -133.4375 C 136.664062 -127.25 144.726562 -118.40625 149.78125 -106.90625 L 118.15625 -89.921875 C 110.832031 -102.816406 100.285156 -109.265625 86.515625 -109.265625 C 75.890625 -109.265625 67.09375 -105.773438 60.125 -98.796875 C 53.15625 -91.828125 49.671875 -82.332031 49.671875 -70.3125 C 49.671875 -58.289062 53.15625 -48.789062 60.125 -41.8125 C 67.09375 -34.84375 75.890625 -31.359375 86.515625 -31.359375 C 100.460938 -31.359375 111.007812 -37.804688 118.15625 -50.703125 L 149.78125 -33.453125 C 144.726562 -22.304688 136.664062 -13.59375 125.59375 -7.3125 C 114.53125 -1.039062 101.59375 2.09375 86.78125 2.09375 Z M 86.78125 2.09375 "/></g></g><g style="fill:#e63946;fill-opacity:1;"><g transform="translate(1363.573275, 280.124982)"><path style="stroke:none" d="M 85.734375 2.09375 C 70.921875 2.09375 57.632812 -1 45.875 -7.1875 C 34.113281 -13.375 24.921875 -21.957031 18.296875 -32.9375 C 11.671875 -43.914062 8.359375 -56.375 8.359375 -70.3125 C 8.359375 -84.25 11.671875 -96.707031 18.296875 -107.6875 C 24.921875 -118.664062 34.113281 -127.25 45.875 -133.4375 C 57.632812 -139.625 70.921875 -142.71875 85.734375 -142.71875 C 100.546875 -142.71875 113.789062 -139.625 125.46875 -133.4375 C 137.144531 -127.25 146.289062 -118.664062 152.90625 -107.6875 C 159.53125 -96.707031 162.84375 -84.25 162.84375 -70.3125 C 162.84375 -56.375 159.53125 -43.914062 152.90625 -32.9375 C 146.289062 -21.957031 137.144531 -13.375 125.46875 -7.1875 C 113.789062 -1 100.546875 2.09375 85.734375 2.09375 Z M 85.734375 -31.359375 C 96.191406 -31.359375 104.773438 -34.890625 111.484375 -41.953125 C 118.191406 -49.015625 121.546875 -58.46875 121.546875 -70.3125 C 121.546875 -82.164062 118.191406 -91.617188 111.484375 -98.671875 C 104.773438 -105.734375 96.191406 -109.265625 85.734375 -109.265625 C 75.273438 -109.265625 66.648438 -105.734375 59.859375 -98.671875 C 53.066406 -91.617188 49.671875 -82.164062 49.671875 -70.3125 C 49.671875 -58.46875 53.066406 -49.015625 59.859375 -41.953125 C 66.648438 -34.890625 75.273438 -31.359375 85.734375 -31.359375 Z M 85.734375 -31.359375 "/></g></g></g></svg>