<svg xmlns="http://www.w3.org/2000/svg" xmlns:xlink="http://www.w3.org/1999/xlink" width="1800" zoomAndPan="magnify" viewBox="0 0 1350 262.499992" height="350" preserveAspectRatio="xMidYMid meet" version="1.0"><defs><filter x="0%" y="0%" width="100%" height="100%" id="8ee44939a2"><feColorMatrix values="0 0 0 0 1 0 0 0 0 1 0 0 0 0 1 0 0 0 1 0" color-interpolation-filters="sRGB"/></filter><g/><clipPath id="271e4b1a8c"><path d="M 1.285156 0 L 1348.714844 0 L 1348.714844 262 L 1.285156 262 Z M 1.285156 0 " clip-rule="nonzero"/></clipPath><clipPath id="bdc72b46f6"><path d="M 1.285156 0 L 1348.714844 0 L 1348.714844 262 L 1.285156 262 Z M 1.285156 0 " clip-rule="nonzero"/></clipPath><clipPath id="c88e722417"><path d="M 0.285156 0 L 1347.714844 0 L 1347.714844 262 L 0.285156 262 Z M 0.285156 0 " clip-rule="nonzero"/></clipPath><clipPath id="faf3f25c63"><path d="M 573.691406 0 L 1347.714844 0 L 1347.714844 262 L 573.691406 262 Z M 573.691406 0 " clip-rule="nonzero"/></clipPath><linearGradient x1="765.498009" gradientTransform="matrix(0.748684, 0, 0, 0.748572, 0.575175, -19.836746)" y1="201.5" x2="1799.346654" gradientUnits="userSpaceOnUse" y2="201.5" id="ed584161c7"><stop stop-opacity="1" stop-color="rgb(7.839966%, 62.348938%, 76.858521%)" offset="0"/><stop stop-opacity="1" stop-color="rgb(7.839966%, 62.348938%, 76.858521%)" offset="0.5"/><stop stop-opacity="1" stop-color="rgb(7.839966%, 62.348938%, 76.858521%)" offset="0.53125"/><stop stop-opacity="1" stop-color="rgb(7.839966%, 62.348938%, 76.858521%)" offset="0.546875"/><stop stop-opacity="1" stop-color="rgb(7.839966%, 62.348938%, 76.858521%)" offset="0.554688"/><stop stop-opacity="1" stop-color="rgb(7.844543%, 62.295532%, 75.830078%)" offset="0.558594"/><stop stop-opacity="1" stop-color="rgb(7.850647%, 62.243652%, 74.801636%)" offset="0.5625"/><stop stop-opacity="1" stop-color="rgb(7.858276%, 62.167358%, 73.300171%)" offset="0.566406"/><stop stop-opacity="1" stop-color="rgb(7.865906%, 62.091064%, 71.798706%)" offset="0.570312"/><stop stop-opacity="1" stop-color="rgb(7.873535%, 62.014771%, 70.297241%)" offset="0.574219"/><stop stop-opacity="1" stop-color="rgb(7.881165%, 61.938477%, 68.797302%)" offset="0.578125"/><stop stop-opacity="1" stop-color="rgb(7.888794%, 61.860657%, 67.295837%)" offset="0.582031"/><stop stop-opacity="1" stop-color="rgb(7.896423%, 61.784363%, 65.795898%)" offset="0.585937"/><stop stop-opacity="1" stop-color="rgb(7.904053%, 61.708069%, 64.294434%)" offset="0.589844"/><stop stop-opacity="1" stop-color="rgb(7.911682%, 61.631775%, 62.792969%)" offset="0.59375"/><stop stop-opacity="1" stop-color="rgb(7.919312%, 61.555481%, 61.291504%)" offset="0.597656"/><stop stop-opacity="1" stop-color="rgb(7.928467%, 61.479187%, 59.791565%)" offset="0.601562"/><stop stop-opacity="1" stop-color="rgb(7.936096%, 61.401367%, 58.2901%)" offset="0.605469"/><stop stop-opacity="1" stop-color="rgb(7.943726%, 61.325073%, 56.788635%)" offset="0.609375"/><stop stop-opacity="1" stop-color="rgb(7.951355%, 61.248779%, 55.28717%)" offset="0.613281"/><stop stop-opacity="1" stop-color="rgb(7.958984%, 61.172485%, 53.787231%)" offset="0.617187"/><stop stop-opacity="1" stop-color="rgb(7.966614%, 61.096191%, 52.285767%)" offset="0.621094"/><stop stop-opacity="1" stop-color="rgb(7.974243%, 61.019897%, 50.785828%)" offset="0.625"/><stop stop-opacity="1" stop-color="rgb(7.981873%, 60.942078%, 49.284363%)" offset="0.628906"/><stop stop-opacity="1" stop-color="rgb(7.991028%, 60.865784%, 47.782898%)" offset="0.632812"/><stop stop-opacity="1" stop-color="rgb(7.998657%, 60.78949%, 46.281433%)" offset="0.636719"/><stop stop-opacity="1" stop-color="rgb(8.006287%, 60.713196%, 44.781494%)" offset="0.640625"/><stop stop-opacity="1" stop-color="rgb(8.013916%, 60.636902%, 43.280029%)" offset="0.644531"/><stop stop-opacity="1" stop-color="rgb(8.021545%, 60.560608%, 41.78009%)" offset="0.648438"/><stop stop-opacity="1" stop-color="rgb(8.029175%, 60.482788%, 40.278625%)" offset="0.652344"/><stop stop-opacity="1" stop-color="rgb(8.036804%, 60.406494%, 38.777161%)" offset="0.65625"/><stop stop-opacity="1" stop-color="rgb(8.044434%, 60.3302%, 37.275696%)" offset="0.660156"/><stop stop-opacity="1" stop-color="rgb(8.053589%, 60.253906%, 35.775757%)" offset="0.664062"/><stop stop-opacity="1" stop-color="rgb(8.061218%, 60.177612%, 34.274292%)" offset="0.667969"/><stop stop-opacity="1" stop-color="rgb(8.068848%, 60.101318%, 32.774353%)" offset="0.671875"/><stop stop-opacity="1" stop-color="rgb(8.076477%, 60.023499%, 31.272888%)" offset="0.675781"/><stop stop-opacity="1" stop-color="rgb(8.084106%, 59.947205%, 29.771423%)" offset="0.679687"/><stop stop-opacity="1" stop-color="rgb(8.091736%, 59.870911%, 28.269958%)" offset="0.683594"/><stop stop-opacity="1" stop-color="rgb(8.099365%, 59.794617%, 26.77002%)" offset="0.6875"/><stop stop-opacity="1" stop-color="rgb(8.106995%, 59.718323%, 25.268555%)" offset="0.691406"/><stop stop-opacity="1" stop-color="rgb(8.11615%, 59.642029%, 23.768616%)" offset="0.695312"/><stop stop-opacity="1" stop-color="rgb(8.123779%, 59.564209%, 22.267151%)" offset="0.699219"/><stop stop-opacity="1" stop-color="rgb(8.131409%, 59.487915%, 20.765686%)" offset="0.703125"/><stop stop-opacity="1" stop-color="rgb(8.139038%, 59.411621%, 19.264221%)" offset="0.707031"/><stop stop-opacity="1" stop-color="rgb(8.146667%, 59.335327%, 17.764282%)" offset="0.710937"/><stop stop-opacity="1" stop-color="rgb(8.154297%, 59.259033%, 16.262817%)" offset="0.714844"/><stop stop-opacity="1" stop-color="rgb(8.161926%, 59.182739%, 14.761353%)" offset="0.71875"/><stop stop-opacity="1" stop-color="rgb(8.169556%, 59.104919%, 13.259888%)" offset="0.722656"/><stop stop-opacity="1" stop-color="rgb(8.178711%, 59.028625%, 11.759949%)" offset="0.726562"/><stop stop-opacity="1" stop-color="rgb(8.18634%, 58.952332%, 10.258484%)" offset="0.730469"/><stop stop-opacity="1" stop-color="rgb(8.19397%, 58.876038%, 8.758545%)" offset="0.734375"/><stop stop-opacity="1" stop-color="rgb(8.201599%, 58.799744%, 7.25708%)" offset="0.738281"/><stop stop-opacity="1" stop-color="rgb(8.209229%, 58.72345%, 5.755615%)" offset="0.742187"/><stop stop-opacity="1" stop-color="rgb(8.216858%, 58.64563%, 4.25415%)" offset="0.746094"/><stop stop-opacity="1" stop-color="rgb(8.224487%, 58.569336%, 2.754211%)" offset="0.75"/><stop stop-opacity="1" stop-color="rgb(8.232117%, 58.499146%, 1.376343%)" offset="0.753906"/><stop stop-opacity="1" stop-color="rgb(8.239746%, 58.428955%, 0%)" offset="0.757812"/><stop stop-opacity="1" stop-color="rgb(8.239746%, 58.428955%, 0%)" offset="0.765625"/><stop stop-opacity="1" stop-color="rgb(8.239746%, 58.428955%, 0%)" offset="0.78125"/><stop stop-opacity="1" stop-color="rgb(8.239746%, 58.428955%, 0%)" offset="0.8125"/><stop stop-opacity="1" stop-color="rgb(8.239746%, 58.428955%, 0%)" offset="0.875"/><stop stop-opacity="1" stop-color="rgb(8.239746%, 58.428955%, 0%)" offset="1"/></linearGradient><clipPath id="cdae011ad9"><rect x="0" width="1348" y="0" height="262"/></clipPath><clipPath id="418c7828de"><path d="M 0.285156 0 L 1347.714844 0 L 1347.714844 262 L 0.285156 262 Z M 0.285156 0 " clip-rule="nonzero"/></clipPath><clipPath id="095e239079"><rect x="0" width="1348" y="0" height="262"/></clipPath><clipPath id="c13bdb634f"><rect x="0" width="1348" y="0" height="262"/></clipPath><mask id="0bf3cf0b25"><g filter="url(#8ee44939a2)"><g transform="matrix(1, 0, 0, 1, 0.000000000000000222, 0)"><g clip-path="url(#c13bdb634f)"><g clip-path="url(#418c7828de)"><g transform="matrix(1, 0, 0, 1, 0.000000000000000222, 0)"><g clip-path="url(#095e239079)"><g fill="#000000" fill-opacity="1"><g transform="translate(1004.495433, 207.72931)"><g><path d="M 90.125 2.59375 C 74.738281 2.59375 60.828125 -0.75 48.390625 -7.4375 C 35.960938 -14.125 26.191406 -23.394531 19.078125 -35.25 C 11.960938 -47.101562 8.40625 -60.503906 8.40625 -75.453125 C 8.40625 -90.398438 11.960938 -103.800781 19.078125 -115.65625 C 26.191406 -127.519531 35.960938 -136.789062 48.390625 -143.46875 C 60.828125 -150.15625 74.804688 -153.5 90.328125 -153.5 C 103.410156 -153.5 115.234375 -151.195312 125.796875 -146.59375 C 136.359375 -142 145.234375 -135.390625 152.421875 -126.765625 L 130 -106.078125 C 119.800781 -117.859375 107.15625 -123.75 92.0625 -123.75 C 82.71875 -123.75 74.378906 -121.703125 67.046875 -117.609375 C 59.710938 -113.515625 54 -107.800781 49.90625 -100.46875 C 45.8125 -93.132812 43.765625 -84.796875 43.765625 -75.453125 C 43.765625 -66.109375 45.8125 -57.769531 49.90625 -50.4375 C 54 -43.113281 59.710938 -37.40625 67.046875 -33.3125 C 74.378906 -29.21875 82.71875 -27.171875 92.0625 -27.171875 C 107.15625 -27.171875 119.800781 -33.132812 130 -45.0625 L 152.421875 -24.359375 C 145.234375 -15.585938 136.320312 -8.898438 125.6875 -4.296875 C 115.050781 0.296875 103.195312 2.59375 90.125 2.59375 Z M 90.125 2.59375 "/></g></g></g></g></g></g></g></g></g></mask><clipPath id="ef000fbad3"><path d="M 573.691406 0 L 1347.714844 0 L 1347.714844 262 L 573.691406 262 Z M 573.691406 0 " clip-rule="nonzero"/></clipPath><clipPath id="f48d0cc3f8"><rect x="0" width="1348" y="0" height="262"/></clipPath><clipPath id="ff83114fa9"><rect x="0" width="1348" y="0" height="262"/></clipPath><clipPath id="70eb335db3"><path d="M 0.285156 0 L 1347.714844 0 L 1347.714844 262 L 0.285156 262 Z M 0.285156 0 " clip-rule="nonzero"/></clipPath><clipPath id="a227d2b3bb"><path d="M 727.898438 0 L 1347.714844 0 L 1347.714844 262 L 727.898438 262 Z M 727.898438 0 " clip-rule="nonzero"/></clipPath><linearGradient x1="972.294999" gradientTransform="matrix(0.74853, 0, 0, 0.748572, 0.105269, -19.836804)" y1="201.5" x2="1800.343702" gradientUnits="userSpaceOnUse" y2="201.5" id="c4f8f0e553"><stop stop-opacity="1" stop-color="rgb(100%, 84.709167%, 3.529358%)" offset="0"/><stop stop-opacity="1" stop-color="rgb(100%, 84.709167%, 3.529358%)" offset="0.5"/><stop stop-opacity="1" stop-color="rgb(100%, 84.709167%, 3.529358%)" offset="0.625"/><stop stop-opacity="1" stop-color="rgb(100%, 84.709167%, 3.529358%)" offset="0.6875"/><stop stop-opacity="1" stop-color="rgb(100%, 84.709167%, 3.529358%)" offset="0.695312"/><stop stop-opacity="1" stop-color="rgb(100%, 83.650208%, 3.509521%)" offset="0.699219"/><stop stop-opacity="1" stop-color="rgb(100%, 82.591248%, 3.489685%)" offset="0.703125"/><stop stop-opacity="1" stop-color="rgb(100%, 81.489563%, 3.468323%)" offset="0.707031"/><stop stop-opacity="1" stop-color="rgb(100%, 80.389404%, 3.44696%)" offset="0.710938"/><stop stop-opacity="1" stop-color="rgb(100%, 79.28772%, 3.425598%)" offset="0.714844"/><stop stop-opacity="1" stop-color="rgb(100%, 78.187561%, 3.405762%)" offset="0.71875"/><stop stop-opacity="1" stop-color="rgb(100%, 77.085876%, 3.384399%)" offset="0.722656"/><stop stop-opacity="1" stop-color="rgb(100%, 75.985718%, 3.363037%)" offset="0.726562"/><stop stop-opacity="1" stop-color="rgb(100%, 74.884033%, 3.341675%)" offset="0.730469"/><stop stop-opacity="1" stop-color="rgb(100%, 73.782349%, 3.321838%)" offset="0.734375"/><stop stop-opacity="1" stop-color="rgb(100%, 72.680664%, 3.300476%)" offset="0.738281"/><stop stop-opacity="1" stop-color="rgb(100%, 71.580505%, 3.28064%)" offset="0.742188"/><stop stop-opacity="1" stop-color="rgb(100%, 70.478821%, 3.259277%)" offset="0.746094"/><stop stop-opacity="1" stop-color="rgb(100%, 69.378662%, 3.237915%)" offset="0.75"/><stop stop-opacity="1" stop-color="rgb(100%, 68.276978%, 3.216553%)" offset="0.753906"/><stop stop-opacity="1" stop-color="rgb(100%, 67.176819%, 3.196716%)" offset="0.757813"/><stop stop-opacity="1" stop-color="rgb(100%, 66.075134%, 3.175354%)" offset="0.761719"/><stop stop-opacity="1" stop-color="rgb(100%, 64.97345%, 3.155518%)" offset="0.765625"/><stop stop-opacity="1" stop-color="rgb(100%, 63.871765%, 3.134155%)" offset="0.769531"/><stop stop-opacity="1" stop-color="rgb(100%, 62.771606%, 3.112793%)" offset="0.773438"/><stop stop-opacity="1" stop-color="rgb(100%, 61.669922%, 3.091431%)" offset="0.777344"/><stop stop-opacity="1" stop-color="rgb(100%, 60.569763%, 3.071594%)" offset="0.78125"/><stop stop-opacity="1" stop-color="rgb(100%, 59.468079%, 3.050232%)" offset="0.785156"/><stop stop-opacity="1" stop-color="rgb(100%, 58.366394%, 3.02887%)" offset="0.789062"/><stop stop-opacity="1" stop-color="rgb(100%, 57.264709%, 3.007507%)" offset="0.792969"/><stop stop-opacity="1" stop-color="rgb(100%, 56.164551%, 2.987671%)" offset="0.796875"/><stop stop-opacity="1" stop-color="rgb(100%, 55.062866%, 2.966309%)" offset="0.800781"/><stop stop-opacity="1" stop-color="rgb(100%, 53.962708%, 2.946472%)" offset="0.804688"/><stop stop-opacity="1" stop-color="rgb(100%, 52.861023%, 2.92511%)" offset="0.808594"/><stop stop-opacity="1" stop-color="rgb(100%, 51.760864%, 2.903748%)" offset="0.8125"/><stop stop-opacity="1" stop-color="rgb(100%, 50.65918%, 2.882385%)" offset="0.816406"/><stop stop-opacity="1" stop-color="rgb(100%, 49.557495%, 2.862549%)" offset="0.820312"/><stop stop-opacity="1" stop-color="rgb(100%, 48.455811%, 2.841187%)" offset="0.824219"/><stop stop-opacity="1" stop-color="rgb(100%, 47.355652%, 2.819824%)" offset="0.828125"/><stop stop-opacity="1" stop-color="rgb(100%, 46.253967%, 2.798462%)" offset="0.832031"/><stop stop-opacity="1" stop-color="rgb(100%, 45.153809%, 2.778625%)" offset="0.835938"/><stop stop-opacity="1" stop-color="rgb(100%, 44.052124%, 2.757263%)" offset="0.839844"/><stop stop-opacity="1" stop-color="rgb(100%, 42.951965%, 2.737427%)" offset="0.84375"/><stop stop-opacity="1" stop-color="rgb(100%, 41.850281%, 2.716064%)" offset="0.847656"/><stop stop-opacity="1" stop-color="rgb(100%, 40.748596%, 2.694702%)" offset="0.851563"/><stop stop-opacity="1" stop-color="rgb(100%, 39.646912%, 2.67334%)" offset="0.855469"/><stop stop-opacity="1" stop-color="rgb(100%, 38.546753%, 2.653503%)" offset="0.859375"/><stop stop-opacity="1" stop-color="rgb(100%, 37.445068%, 2.632141%)" offset="0.863281"/><stop stop-opacity="1" stop-color="rgb(100%, 36.34491%, 2.612305%)" offset="0.867188"/><stop stop-opacity="1" stop-color="rgb(100%, 35.243225%, 2.590942%)" offset="0.871094"/><stop stop-opacity="1" stop-color="rgb(100%, 34.141541%, 2.56958%)" offset="0.875"/><stop stop-opacity="1" stop-color="rgb(100%, 33.039856%, 2.548218%)" offset="0.878906"/><stop stop-opacity="1" stop-color="rgb(100%, 31.939697%, 2.528381%)" offset="0.882813"/><stop stop-opacity="1" stop-color="rgb(100%, 30.838013%, 2.507019%)" offset="0.886719"/><stop stop-opacity="1" stop-color="rgb(100%, 29.737854%, 2.485657%)" offset="0.890625"/><stop stop-opacity="1" stop-color="rgb(100%, 28.636169%, 2.464294%)" offset="0.894531"/><stop stop-opacity="1" stop-color="rgb(100%, 27.536011%, 2.444458%)" offset="0.898438"/><stop stop-opacity="1" stop-color="rgb(100%, 26.434326%, 2.423096%)" offset="0.902344"/><stop stop-opacity="1" stop-color="rgb(100%, 25.332642%, 2.403259%)" offset="0.90625"/><stop stop-opacity="1" stop-color="rgb(100%, 24.230957%, 2.381897%)" offset="0.910156"/><stop stop-opacity="1" stop-color="rgb(100%, 23.130798%, 2.360535%)" offset="0.914063"/><stop stop-opacity="1" stop-color="rgb(100%, 22.029114%, 2.339172%)" offset="0.917969"/><stop stop-opacity="1" stop-color="rgb(100%, 20.928955%, 2.319336%)" offset="0.921875"/><stop stop-opacity="1" stop-color="rgb(100%, 19.827271%, 2.297974%)" offset="0.925781"/><stop stop-opacity="1" stop-color="rgb(100%, 18.727112%, 2.276611%)" offset="0.929688"/><stop stop-opacity="1" stop-color="rgb(100%, 17.625427%, 2.255249%)" offset="0.933594"/><stop stop-opacity="1" stop-color="rgb(100%, 16.523743%, 2.235413%)" offset="0.9375"/><stop stop-opacity="1" stop-color="rgb(100%, 15.422058%, 2.21405%)" offset="0.941406"/><stop stop-opacity="1" stop-color="rgb(100%, 14.321899%, 2.194214%)" offset="0.945312"/><stop stop-opacity="1" stop-color="rgb(100%, 13.220215%, 2.172852%)" offset="0.949219"/><stop stop-opacity="1" stop-color="rgb(100%, 12.120056%, 2.151489%)" offset="0.953125"/><stop stop-opacity="1" stop-color="rgb(100%, 11.018372%, 2.130127%)" offset="0.957031"/><stop stop-opacity="1" stop-color="rgb(100%, 9.916687%, 2.110291%)" offset="0.960938"/><stop stop-opacity="1" stop-color="rgb(100%, 8.815002%, 2.088928%)" offset="0.964844"/><stop stop-opacity="1" stop-color="rgb(100%, 7.714844%, 2.069092%)" offset="0.96875"/><stop stop-opacity="1" stop-color="rgb(100%, 6.613159%, 2.047729%)" offset="0.972656"/><stop stop-opacity="1" stop-color="rgb(100%, 5.513%, 2.026367%)" offset="0.976563"/><stop stop-opacity="1" stop-color="rgb(100%, 4.411316%, 2.005005%)" offset="0.980469"/><stop stop-opacity="1" stop-color="rgb(100%, 3.311157%, 1.985168%)" offset="0.984375"/><stop stop-opacity="1" stop-color="rgb(100%, 2.635193%, 1.971436%)" offset="0.988281"/><stop stop-opacity="1" stop-color="rgb(100%, 1.959229%, 1.959229%)" offset="0.992188"/><stop stop-opacity="1" stop-color="rgb(100%, 1.959229%, 1.959229%)" offset="1"/></linearGradient><clipPath id="bd8200d00d"><rect x="0" width="1348" y="0" height="262"/></clipPath><clipPath id="070f20ef3f"><path d="M 0.285156 0 L 1347.714844 0 L 1347.714844 262 L 0.285156 262 Z M 0.285156 0 " clip-rule="nonzero"/></clipPath><clipPath id="31a04bde72"><rect x="0" width="1348" y="0" height="262"/></clipPath><clipPath id="2ea6fa390b"><rect x="0" width="1348" y="0" height="262"/></clipPath><mask id="6659c21203"><g filter="url(#8ee44939a2)"><g transform="matrix(1, 0, 0, 1, 0.000000000000000222, 0)"><g clip-path="url(#2ea6fa390b)"><g clip-path="url(#070f20ef3f)"><g transform="matrix(1, 0, 0, 1, 0.000000000000000222, 0)"><g clip-path="url(#31a04bde72)"><g fill="#000000" fill-opacity="1"><g transform="translate(1159.29822, 207.72931)"><g><path d="M 90.984375 2.59375 C 75.316406 2.59375 61.191406 -0.78125 48.609375 -7.53125 C 36.035156 -14.289062 26.191406 -23.597656 19.078125 -35.453125 C 11.960938 -47.316406 8.40625 -60.648438 8.40625 -75.453125 C 8.40625 -90.253906 11.960938 -103.582031 19.078125 -115.4375 C 26.191406 -127.300781 36.035156 -136.609375 48.609375 -143.359375 C 61.191406 -150.117188 75.316406 -153.5 90.984375 -153.5 C 106.648438 -153.5 120.734375 -150.117188 133.234375 -143.359375 C 145.742188 -136.609375 155.585938 -127.300781 162.765625 -115.4375 C 169.953125 -103.582031 173.546875 -90.253906 173.546875 -75.453125 C 173.546875 -60.648438 169.953125 -47.316406 162.765625 -35.453125 C 155.585938 -23.597656 145.742188 -14.289062 133.234375 -7.53125 C 120.734375 -0.78125 106.648438 2.59375 90.984375 2.59375 Z M 90.984375 -27.171875 C 99.890625 -27.171875 107.9375 -29.21875 115.125 -33.3125 C 122.3125 -37.40625 127.953125 -43.113281 132.046875 -50.4375 C 136.148438 -57.769531 138.203125 -66.109375 138.203125 -75.453125 C 138.203125 -84.796875 136.148438 -93.132812 132.046875 -100.46875 C 127.953125 -107.800781 122.3125 -113.515625 115.125 -117.609375 C 107.9375 -121.703125 99.890625 -123.75 90.984375 -123.75 C 82.066406 -123.75 74.015625 -121.703125 66.828125 -117.609375 C 59.640625 -113.515625 54 -107.800781 49.90625 -100.46875 C 45.8125 -93.132812 43.765625 -84.796875 43.765625 -75.453125 C 43.765625 -66.109375 45.8125 -57.769531 49.90625 -50.4375 C 54 -43.113281 59.640625 -37.40625 66.828125 -33.3125 C 74.015625 -29.21875 82.066406 -27.171875 90.984375 -27.171875 Z M 90.984375 -27.171875 "/></g></g></g></g></g></g></g></g></g></mask><clipPath id="56792b8620"><path d="M 727.898438 0 L 1347.714844 0 L 1347.714844 262 L 727.898438 262 Z M 727.898438 0 " clip-rule="nonzero"/></clipPath><clipPath id="68ef2a1ce5"><rect x="0" width="1348" y="0" height="262"/></clipPath><clipPath id="f78d914c59"><rect x="0" width="1348" y="0" height="262"/></clipPath></defs><g clip-path="url(#271e4b1a8c)"><path fill="#ffffff" d="M 1.285156 0 L 1348.714844 0 L 1348.714844 262 L 1.285156 262 Z M 1.285156 0 " fill-opacity="1" fill-rule="nonzero"/><path fill="#ffffff" d="M 1.285156 0 L 1348.714844 0 L 1348.714844 262 L 1.285156 262 Z M 1.285156 0 " fill-opacity="1" fill-rule="nonzero"/></g><g fill="#0b3d91" fill-opacity="1"><g transform="translate(7.739741, 207.72931)"><g><path d="M 134.75 -28.03125 L 134.75 0 L 17.890625 0 L 17.890625 -150.921875 L 131.9375 -150.921875 L 131.9375 -122.890625 L 52.609375 -122.890625 L 52.609375 -90.125 L 122.671875 -90.125 L 122.671875 -62.953125 L 52.609375 -62.953125 L 52.609375 -28.03125 Z M 134.75 -28.03125 "/></g></g></g><g fill="#0b3d91" fill-opacity="1"><g transform="translate(152.399925, 207.72931)"><g><path d="M 156.3125 -150.921875 L 156.3125 0 L 127.625 0 L 52.390625 -91.625 L 52.390625 0 L 17.890625 0 L 17.890625 -150.921875 L 46.78125 -150.921875 L 121.8125 -59.28125 L 121.8125 -150.921875 Z M 156.3125 -150.921875 "/></g></g></g><g fill="#0b3d91" fill-opacity="1"><g transform="translate(326.595819, 207.72931)"><g><path d="M 119.875 -77.828125 L 151.78125 -77.828125 L 151.78125 -16.59375 C 143.582031 -10.414062 134.09375 -5.671875 123.3125 -2.359375 C 112.539062 0.941406 101.691406 2.59375 90.765625 2.59375 C 75.097656 2.59375 61.007812 -0.75 48.5 -7.4375 C 36 -14.125 26.191406 -23.394531 19.078125 -35.25 C 11.960938 -47.101562 8.40625 -60.503906 8.40625 -75.453125 C 8.40625 -90.398438 11.960938 -103.800781 19.078125 -115.65625 C 26.191406 -127.519531 36.070312 -136.789062 48.71875 -143.46875 C 61.375 -150.15625 75.601562 -153.5 91.40625 -153.5 C 104.632812 -153.5 116.632812 -151.269531 127.40625 -146.8125 C 138.1875 -142.363281 147.242188 -135.898438 154.578125 -127.421875 L 132.15625 -106.71875 C 121.375 -118.070312 108.367188 -123.75 93.140625 -123.75 C 83.503906 -123.75 74.945312 -121.734375 67.46875 -117.703125 C 60 -113.679688 54.179688 -108.003906 50.015625 -100.671875 C 45.847656 -93.347656 43.765625 -84.941406 43.765625 -75.453125 C 43.765625 -66.109375 45.847656 -57.769531 50.015625 -50.4375 C 54.179688 -43.113281 59.960938 -37.40625 67.359375 -33.3125 C 74.765625 -29.21875 83.210938 -27.171875 92.703125 -27.171875 C 102.765625 -27.171875 111.820312 -29.320312 119.875 -33.625 Z M 119.875 -77.828125 "/></g></g></g><g fill="#0b3d91" fill-opacity="1"><g transform="translate(492.814929, 207.72931)"><g><path d="M 17.890625 -150.921875 L 52.828125 -150.921875 L 52.828125 -28.453125 L 128.5 -28.453125 L 128.5 0 L 17.890625 0 Z M 17.890625 -150.921875 "/></g></g></g><g fill="#0b3d91" fill-opacity="1"><g transform="translate(623.030635, 207.72931)"><g><path d="M 17.890625 -150.921875 L 52.828125 -150.921875 L 52.828125 0 L 17.890625 0 Z M 17.890625 -150.921875 "/></g></g></g><g fill="#0b3d91" fill-opacity="1"><g transform="translate(693.743838, 207.72931)"><g><path d="M 67.484375 2.59375 C 55.554688 2.59375 44.019531 0.976562 32.875 -2.25 C 21.738281 -5.488281 12.789062 -9.695312 6.03125 -14.875 L 17.890625 -41.171875 C 24.359375 -36.429688 32.046875 -32.625 40.953125 -29.75 C 49.867188 -26.875 58.785156 -25.4375 67.703125 -25.4375 C 77.617188 -25.4375 84.945312 -26.910156 89.6875 -29.859375 C 94.425781 -32.804688 96.796875 -36.722656 96.796875 -41.609375 C 96.796875 -45.203125 95.394531 -48.179688 92.59375 -50.546875 C 89.789062 -52.921875 86.195312 -54.828125 81.8125 -56.265625 C 77.4375 -57.703125 71.507812 -59.285156 64.03125 -61.015625 C 52.53125 -63.742188 43.113281 -66.472656 35.78125 -69.203125 C 28.457031 -71.929688 22.171875 -76.3125 16.921875 -82.34375 C 11.679688 -88.382812 9.0625 -96.4375 9.0625 -106.5 C 9.0625 -115.269531 11.429688 -123.210938 16.171875 -130.328125 C 20.910156 -137.441406 28.054688 -143.082031 37.609375 -147.25 C 47.171875 -151.414062 58.851562 -153.5 72.65625 -153.5 C 82.28125 -153.5 91.691406 -152.347656 100.890625 -150.046875 C 110.097656 -147.753906 118.148438 -144.453125 125.046875 -140.140625 L 114.265625 -113.625 C 100.328125 -121.519531 86.382812 -125.46875 72.4375 -125.46875 C 62.664062 -125.46875 55.441406 -123.882812 50.765625 -120.71875 C 46.097656 -117.5625 43.765625 -113.398438 43.765625 -108.234375 C 43.765625 -103.054688 46.457031 -99.207031 51.84375 -96.6875 C 57.238281 -94.175781 65.46875 -91.695312 76.53125 -89.25 C 88.03125 -86.519531 97.445312 -83.789062 104.78125 -81.0625 C 112.113281 -78.332031 118.398438 -74.019531 123.640625 -68.125 C 128.890625 -62.226562 131.515625 -54.253906 131.515625 -44.203125 C 131.515625 -35.578125 129.101562 -27.707031 124.28125 -20.59375 C 119.46875 -13.476562 112.242188 -7.832031 102.609375 -3.65625 C 92.984375 0.507812 81.273438 2.59375 67.484375 2.59375 Z M 67.484375 2.59375 "/></g></g></g><g fill="#0b3d91" fill-opacity="1"><g transform="translate(831.289574, 207.72931)"><g><path d="M 156.3125 -150.921875 L 156.3125 0 L 121.375 0 L 121.375 -61.875 L 52.828125 -61.875 L 52.828125 0 L 17.890625 0 L 17.890625 -150.921875 L 52.828125 -150.921875 L 52.828125 -91.40625 L 121.375 -91.40625 L 121.375 -150.921875 Z M 156.3125 -150.921875 "/></g></g></g><g clip-path="url(#bdc72b46f6)"><g transform="matrix(1, 0, 0, 1, 1, 0)"><g clip-path="url(#ff83114fa9)"><g clip-path="url(#c88e722417)"><g mask="url(#0bf3cf0b25)"><g transform="matrix(1, 0, 0, 1, 0.000000000000000222, 0)"><g clip-path="url(#f48d0cc3f8)"><g clip-path="url(#ef000fbad3)"><path fill="url(#ed584161c7)" d="M 573.691406 0 L 573.691406 262 L 1347.714844 262 L 1347.714844 0 Z M 573.691406 0 " fill-rule="nonzero"/></g></g></g></g></g></g></g><g transform="matrix(1, 0, 0, 1, 1, 0)"><g clip-path="url(#f78d914c59)"><g clip-path="url(#70eb335db3)"><g mask="url(#6659c21203)"><g transform="matrix(1, 0, 0, 1, 0.000000000000000222, 0)"><g clip-path="url(#68ef2a1ce5)"><g clip-path="url(#56792b8620)"><path fill="url(#c4f8f0e553)" d="M 727.898438 0 L 727.898438 262 L 1347.714844 262 L 1347.714844 0 Z M 727.898438 0 " fill-rule="nonzero"/></g></g></g></g></g></g></g></g></svg>