<svg xmlns="http://www.w3.org/2000/svg" xmlns:xlink="http://www.w3.org/1999/xlink" width="300" zoomAndPan="magnify" viewBox="0 0 224.87999 225" height="300" preserveAspectRatio="xMidYMid meet" version="1.0"><path fill="#3560fa" d="M 187.566406 217.855469 C 198.269531 211.242188 202.246094 198.289062 196.46875 188.921875 L 178.445312 159.773438 C 172.644531 150.40625 159.289062 148.175781 148.582031 154.792969 C 144.542969 157.285156 141.460938 160.691406 139.511719 164.472656 L 139.492188 164.492188 C 137.089844 169.703125 132.640625 170.050781 130.816406 168.457031 C 119.636719 157.828125 104.820312 139.824219 97.324219 127.695312 C 89.816406 115.574219 80.339844 94.261719 75.832031 79.507812 C 75.238281 77.15625 77.527344 73.335938 83.257812 73.523438 L 83.289062 73.519531 C 87.535156 73.457031 91.972656 72.222656 96.007812 69.722656 C 106.703125 63.105469 110.679688 50.152344 104.902344 40.792969 L 86.878906 11.640625 C 81.089844 2.269531 67.71875 0.0390625 57.035156 6.652344 C 55.109375 7.835938 53.425781 9.230469 51.945312 10.765625 L 51.945312 10.757812 C 51.945312 10.757812 42.679688 19.492188 38.105469 36.378906 C 35.183594 47.199219 30.863281 68.039062 36.835938 93.40625 L 36.878906 93.5 C 40.074219 108.566406 49.457031 132.832031 60.390625 150.527344 C 71.320312 168.214844 88.835938 187.449219 100.875 197.046875 L 100.945312 197.117188 C 120.957031 213.820312 141.542969 219.265625 152.527344 221.488281 C 169.675781 224.945312 181.628906 220.5625 181.628906 220.5625 C 183.652344 219.933594 185.660156 219.039062 187.566406 217.855469 " fill-opacity="1" fill-rule="nonzero"/></svg>