<svg xmlns="http://www.w3.org/2000/svg" xmlns:xlink="http://www.w3.org/1999/xlink" width="300" zoomAndPan="magnify" viewBox="0 0 224.87999 225" height="300" preserveAspectRatio="xMidYMid meet" version="1.0"><defs><clipPath id="d9febd8885"><path d="M 0 0.0585938 L 224.761719 0.0585938 L 224.761719 224.9375 L 0 224.9375 Z M 0 0.0585938 " clip-rule="nonzero"/></clipPath><clipPath id="37617aeec9"><path d="M 0 0.0585938 L 219.632812 0.0585938 L 219.632812 222 L 0 222 Z M 0 0.0585938 " clip-rule="nonzero"/></clipPath></defs><g clip-path="url(#d9febd8885)"><path fill="#ffffff" d="M 0 0.0585938 L 224.878906 0.0585938 L 224.878906 224.941406 L 0 224.941406 Z M 0 0.0585938 " fill-opacity="1" fill-rule="nonzero"/><path fill="#ffffff" d="M 0 0.0585938 L 224.878906 0.0585938 L 224.878906 224.941406 L 0 224.941406 Z M 0 0.0585938 " fill-opacity="1" fill-rule="nonzero"/></g><g clip-path="url(#37617aeec9)"><path fill="#278d46" d="M 219.625 109.703125 C 219.625 170.238281 170.46875 219.3125 109.832031 219.3125 C 100.953125 219.324219 92.203125 218.273438 83.585938 216.160156 C 74.964844 214.046875 66.722656 210.929688 58.863281 206.808594 C 58.820312 206.828125 58.777344 206.847656 58.730469 206.867188 L 25.636719 220.59375 C 15.28125 224.890625 4.835938 214.664062 8.941406 204.246094 L 20.871094 173.960938 C 17.5 169.320312 14.511719 164.441406 11.90625 159.332031 C 9.304688 154.21875 7.117188 148.9375 5.347656 143.480469 C 3.578125 138.027344 2.25 132.464844 1.359375 126.800781 C 0.46875 121.136719 0.0273438 115.4375 0.0351562 109.703125 C 0.0351562 49.167969 49.191406 0.0976562 109.832031 0.0976562 C 170.46875 0.0976562 219.625 49.167969 219.625 109.703125 Z M 219.625 109.703125 " fill-opacity="1" fill-rule="nonzero"/></g><path fill="#ffffff" d="M 205.378906 109.703125 C 205.378906 111.265625 205.339844 112.824219 205.265625 114.382812 C 205.1875 115.941406 205.074219 117.5 204.917969 119.054688 C 204.765625 120.605469 204.574219 122.15625 204.34375 123.699219 C 204.117188 125.242188 203.847656 126.78125 203.542969 128.3125 C 203.238281 129.84375 202.894531 131.367188 202.515625 132.878906 C 202.136719 134.394531 201.71875 135.898438 201.265625 137.390625 C 200.8125 138.886719 200.320312 140.367188 199.792969 141.835938 C 199.265625 143.308594 198.703125 144.765625 198.105469 146.207031 C 197.507812 147.648438 196.875 149.074219 196.207031 150.484375 C 195.539062 151.898438 194.835938 153.292969 194.097656 154.667969 C 193.359375 156.042969 192.589844 157.402344 191.785156 158.742188 C 190.980469 160.082031 190.144531 161.398438 189.277344 162.695312 C 188.40625 163.996094 187.507812 165.269531 186.578125 166.523438 C 185.644531 167.777344 184.683594 169.007812 183.691406 170.214844 C 182.699219 171.421875 181.679688 172.605469 180.628906 173.761719 C 179.578125 174.917969 178.5 176.046875 177.394531 177.152344 C 176.289062 178.253906 175.15625 179.332031 173.996094 180.378906 C 172.839844 181.429688 171.65625 182.445312 170.445312 183.4375 C 169.238281 184.429688 168.003906 185.386719 166.75 186.316406 C 165.492188 187.246094 164.214844 188.144531 162.914062 189.015625 C 161.613281 189.882812 160.292969 190.714844 158.953125 191.519531 C 157.613281 192.320312 156.25 193.089844 154.871094 193.824219 C 153.492188 194.5625 152.097656 195.261719 150.683594 195.929688 C 149.269531 196.597656 147.839844 197.230469 146.394531 197.828125 C 144.949219 198.425781 143.492188 198.988281 142.019531 199.511719 C 140.546875 200.039062 139.0625 200.527344 137.566406 200.980469 C 136.070312 201.433594 134.5625 201.851562 133.046875 202.230469 C 131.53125 202.609375 130.003906 202.953125 128.472656 203.257812 C 126.9375 203.5625 125.398438 203.828125 123.851562 204.058594 C 122.304688 204.285156 120.753906 204.476562 119.195312 204.628906 C 117.640625 204.78125 116.082031 204.898438 114.519531 204.972656 C 112.957031 205.050781 111.394531 205.089844 109.832031 205.089844 C 108.265625 205.089844 106.703125 205.050781 105.140625 204.972656 C 103.582031 204.898438 102.023438 204.78125 100.464844 204.628906 C 98.910156 204.476562 97.359375 204.285156 95.8125 204.058594 C 94.265625 203.828125 92.722656 203.5625 91.191406 203.257812 C 89.65625 202.953125 88.132812 202.609375 86.613281 202.230469 C 85.097656 201.851562 83.589844 201.433594 82.09375 200.980469 C 80.597656 200.527344 79.113281 200.039062 77.640625 199.511719 C 76.167969 198.988281 74.710938 198.425781 73.265625 197.828125 C 71.820312 197.230469 70.390625 196.597656 68.976562 195.929688 C 67.566406 195.261719 66.167969 194.5625 64.789062 193.824219 C 63.410156 193.089844 62.050781 192.320312 60.707031 191.519531 C 59.367188 190.714844 58.046875 189.882812 56.746094 189.015625 C 55.445312 188.144531 54.167969 187.246094 52.914062 186.316406 C 51.65625 185.386719 50.425781 184.429688 49.214844 183.4375 C 48.007812 182.445312 46.824219 181.429688 45.664062 180.378906 C 44.503906 179.332031 43.375 178.253906 42.265625 177.152344 C 41.160156 176.046875 40.082031 174.917969 39.035156 173.761719 C 37.984375 172.605469 36.960938 171.421875 35.96875 170.214844 C 34.976562 169.007812 34.015625 167.777344 33.085938 166.523438 C 32.152344 165.269531 31.253906 163.996094 30.386719 162.695312 C 29.515625 161.398438 28.679688 160.082031 27.875 158.742188 C 27.070312 157.402344 26.300781 156.042969 25.5625 154.667969 C 24.828125 153.292969 24.125 151.898438 23.457031 150.484375 C 22.785156 149.074219 22.152344 147.648438 21.554688 146.207031 C 20.957031 144.765625 20.394531 143.308594 19.867188 141.835938 C 19.339844 140.367188 18.851562 138.886719 18.394531 137.390625 C 17.941406 135.898438 17.523438 134.394531 17.144531 132.878906 C 16.765625 131.367188 16.421875 129.84375 16.117188 128.3125 C 15.8125 126.78125 15.546875 125.242188 15.316406 123.699219 C 15.085938 122.15625 14.894531 120.605469 14.742188 119.054688 C 14.589844 117.5 14.472656 115.941406 14.398438 114.382812 C 14.320312 112.824219 14.28125 111.265625 14.28125 109.703125 C 14.28125 108.140625 14.320312 106.582031 14.398438 105.023438 C 14.472656 103.464844 14.589844 101.90625 14.742188 100.355469 C 14.894531 98.800781 15.085938 97.25 15.316406 95.707031 C 15.546875 94.164062 15.8125 92.625 16.117188 91.09375 C 16.421875 89.5625 16.765625 88.039062 17.144531 86.527344 C 17.523438 85.011719 17.941406 83.507812 18.394531 82.015625 C 18.851562 80.519531 19.339844 79.039062 19.867188 77.570312 C 20.394531 76.097656 20.957031 74.644531 21.554688 73.199219 C 22.152344 71.757812 22.785156 70.332031 23.457031 68.921875 C 24.125 67.507812 24.828125 66.117188 25.5625 64.738281 C 26.300781 63.363281 27.070312 62.003906 27.875 60.664062 C 28.679688 59.328125 29.515625 58.007812 30.386719 56.710938 C 31.253906 55.410156 32.152344 54.136719 33.085938 52.882812 C 34.015625 51.628906 34.976562 50.398438 35.96875 49.191406 C 36.960938 47.984375 37.984375 46.804688 39.035156 45.644531 C 40.082031 44.488281 41.160156 43.359375 42.265625 42.253906 C 43.375 41.152344 44.503906 40.074219 45.664062 39.027344 C 46.824219 37.980469 48.007812 36.960938 49.214844 35.96875 C 50.425781 34.980469 51.65625 34.019531 52.914062 33.089844 C 54.167969 32.160156 55.445312 31.261719 56.746094 30.394531 C 58.046875 29.527344 59.367188 28.691406 60.707031 27.886719 C 62.050781 27.085938 63.410156 26.316406 64.789062 25.582031 C 66.167969 24.84375 67.566406 24.144531 68.976562 23.476562 C 70.390625 22.808594 71.820312 22.175781 73.265625 21.578125 C 74.710938 20.980469 76.167969 20.417969 77.640625 19.894531 C 79.113281 19.367188 80.597656 18.878906 82.09375 18.425781 C 83.589844 17.972656 85.097656 17.554688 86.613281 17.175781 C 88.132812 16.796875 89.65625 16.453125 91.191406 16.152344 C 92.722656 15.847656 94.265625 15.578125 95.8125 15.351562 C 97.359375 15.121094 98.910156 14.929688 100.464844 14.777344 C 102.023438 14.625 103.582031 14.507812 105.140625 14.433594 C 106.703125 14.355469 108.265625 14.316406 109.832031 14.316406 C 111.394531 14.316406 112.957031 14.355469 114.519531 14.433594 C 116.082031 14.507812 117.640625 14.625 119.195312 14.777344 C 120.753906 14.929688 122.304688 15.121094 123.851562 15.351562 C 125.398438 15.578125 126.9375 15.847656 128.472656 16.152344 C 130.003906 16.453125 131.53125 16.796875 133.046875 17.175781 C 134.5625 17.554688 136.070312 17.972656 137.566406 18.425781 C 139.0625 18.878906 140.546875 19.367188 142.019531 19.894531 C 143.492188 20.417969 144.949219 20.980469 146.394531 21.578125 C 147.839844 22.175781 149.269531 22.808594 150.683594 23.476562 C 152.097656 24.144531 153.492188 24.84375 154.871094 25.582031 C 156.25 26.316406 157.613281 27.085938 158.953125 27.886719 C 160.292969 28.691406 161.613281 29.527344 162.914062 30.394531 C 164.214844 31.261719 165.492188 32.160156 166.75 33.089844 C 168.003906 34.019531 169.238281 34.980469 170.445312 35.96875 C 171.65625 36.960938 172.839844 37.980469 173.996094 39.027344 C 175.15625 40.074219 176.289062 41.152344 177.394531 42.253906 C 178.5 43.359375 179.578125 44.488281 180.628906 45.644531 C 181.679688 46.804688 182.699219 47.984375 183.691406 49.191406 C 184.683594 50.398438 185.644531 51.628906 186.578125 52.882812 C 187.507812 54.136719 188.40625 55.410156 189.277344 56.710938 C 190.144531 58.007812 190.980469 59.328125 191.785156 60.664062 C 192.589844 62.003906 193.359375 63.363281 194.097656 64.738281 C 194.835938 66.117188 195.539062 67.507812 196.207031 68.921875 C 196.875 70.332031 197.507812 71.757812 198.105469 73.199219 C 198.703125 74.644531 199.265625 76.097656 199.792969 77.570312 C 200.320312 79.039062 200.8125 80.519531 201.265625 82.015625 C 201.71875 83.507812 202.136719 85.011719 202.515625 86.527344 C 202.894531 88.039062 203.238281 89.5625 203.542969 91.09375 C 203.847656 92.625 204.117188 94.164062 204.34375 95.707031 C 204.574219 97.25 204.765625 98.800781 204.917969 100.355469 C 205.074219 101.90625 205.1875 103.464844 205.265625 105.023438 C 205.339844 106.582031 205.378906 108.140625 205.378906 109.703125 Z M 205.378906 109.703125 " fill-opacity="1" fill-rule="nonzero"/><path fill="#278d46" d="M 191.996094 109.703125 C 191.996094 111.046875 191.964844 112.386719 191.898438 113.726562 C 191.832031 115.070312 191.734375 116.40625 191.601562 117.742188 C 191.46875 119.078125 191.304688 120.410156 191.109375 121.738281 C 190.910156 123.066406 190.679688 124.390625 190.417969 125.707031 C 190.15625 127.023438 189.859375 128.332031 189.535156 129.632812 C 189.207031 130.9375 188.847656 132.230469 188.457031 133.515625 C 188.070312 134.800781 187.648438 136.074219 187.195312 137.335938 C 186.742188 138.601562 186.257812 139.851562 185.742188 141.09375 C 185.226562 142.332031 184.683594 143.558594 184.109375 144.773438 C 183.53125 145.988281 182.929688 147.1875 182.292969 148.371094 C 181.660156 149.554688 181 150.722656 180.308594 151.875 C 179.617188 153.023438 178.898438 154.160156 178.148438 155.273438 C 177.402344 156.390625 176.628906 157.488281 175.828125 158.566406 C 175.027344 159.644531 174.199219 160.703125 173.347656 161.738281 C 172.492188 162.777344 171.613281 163.792969 170.710938 164.789062 C 169.808594 165.785156 168.882812 166.753906 167.929688 167.703125 C 166.980469 168.652344 166.007812 169.578125 165.011719 170.480469 C 164.015625 171.382812 162.996094 172.257812 161.957031 173.109375 C 160.917969 173.960938 159.855469 174.789062 158.777344 175.585938 C 157.695312 176.386719 156.597656 177.160156 155.480469 177.90625 C 154.363281 178.652344 153.226562 179.371094 152.074219 180.058594 C 150.917969 180.75 149.75 181.410156 148.5625 182.042969 C 147.378906 182.675781 146.175781 183.28125 144.960938 183.855469 C 143.746094 184.429688 142.515625 184.972656 141.273438 185.484375 C 140.03125 186 138.777344 186.480469 137.511719 186.933594 C 136.246094 187.386719 134.96875 187.808594 133.683594 188.199219 C 132.394531 188.585938 131.101562 188.945312 129.796875 189.269531 C 128.492188 189.597656 127.179688 189.890625 125.859375 190.152344 C 124.542969 190.414062 123.21875 190.644531 121.886719 190.839844 C 120.558594 191.039062 119.222656 191.203125 117.882812 191.335938 C 116.546875 191.464844 115.207031 191.566406 113.863281 191.628906 C 112.519531 191.695312 111.175781 191.730469 109.832031 191.730469 C 108.484375 191.730469 107.140625 191.695312 105.800781 191.628906 C 104.457031 191.566406 103.117188 191.464844 101.777344 191.335938 C 100.4375 191.203125 99.105469 191.039062 97.773438 190.839844 C 96.445312 190.644531 95.121094 190.414062 93.800781 190.152344 C 92.480469 189.890625 91.171875 189.597656 89.867188 189.269531 C 88.5625 188.945312 87.265625 188.585938 85.980469 188.199219 C 84.691406 187.808594 83.414062 187.386719 82.148438 186.933594 C 80.882812 186.480469 79.628906 186 78.386719 185.484375 C 77.144531 184.972656 75.914062 184.429688 74.699219 183.855469 C 73.484375 183.28125 72.285156 182.675781 71.097656 182.042969 C 69.910156 181.410156 68.742188 180.75 67.589844 180.058594 C 66.433594 179.371094 65.300781 178.652344 64.183594 177.90625 C 63.0625 177.160156 61.964844 176.386719 60.882812 175.585938 C 59.804688 174.789062 58.746094 173.960938 57.703125 173.109375 C 56.664062 172.257812 55.648438 171.382812 54.652344 170.480469 C 53.65625 169.578125 52.679688 168.652344 51.730469 167.703125 C 50.78125 166.753906 49.851562 165.785156 48.949219 164.789062 C 48.046875 163.792969 47.167969 162.777344 46.316406 161.738281 C 45.460938 160.703125 44.636719 159.644531 43.835938 158.566406 C 43.03125 157.488281 42.257812 156.390625 41.511719 155.273438 C 40.765625 154.160156 40.046875 153.023438 39.355469 151.875 C 38.664062 150.722656 38 149.554688 37.367188 148.371094 C 36.734375 147.1875 36.128906 145.988281 35.554688 144.773438 C 34.976562 143.558594 34.433594 142.332031 33.917969 141.09375 C 33.40625 139.851562 32.921875 138.601562 32.46875 137.335938 C 32.015625 136.074219 31.59375 134.800781 31.203125 133.515625 C 30.8125 132.230469 30.453125 130.9375 30.128906 129.632812 C 29.800781 128.332031 29.503906 127.023438 29.242188 125.707031 C 28.980469 124.390625 28.75 123.066406 28.554688 121.738281 C 28.355469 120.410156 28.191406 119.078125 28.058594 117.742188 C 27.929688 116.40625 27.828125 115.070312 27.761719 113.726562 C 27.699219 112.386719 27.664062 111.046875 27.664062 109.703125 C 27.664062 108.359375 27.699219 107.019531 27.761719 105.679688 C 27.828125 104.335938 27.929688 103 28.058594 101.664062 C 28.191406 100.328125 28.355469 98.996094 28.554688 97.667969 C 28.75 96.339844 28.980469 95.015625 29.242188 93.699219 C 29.503906 92.382812 29.800781 91.074219 30.128906 89.773438 C 30.453125 88.46875 30.8125 87.175781 31.203125 85.890625 C 31.59375 84.609375 32.015625 83.332031 32.46875 82.070312 C 32.921875 80.804688 33.40625 79.554688 33.917969 78.3125 C 34.433594 77.074219 34.976562 75.847656 35.554688 74.632812 C 36.128906 73.417969 36.734375 72.21875 37.367188 71.035156 C 38 69.851562 38.664062 68.683594 39.355469 67.535156 C 40.046875 66.382812 40.765625 65.25 41.511719 64.132812 C 42.257812 63.015625 43.03125 61.917969 43.835938 60.839844 C 44.636719 59.761719 45.460938 58.703125 46.316406 57.667969 C 47.167969 56.628906 48.046875 55.613281 48.949219 54.617188 C 49.851562 53.625 50.78125 52.652344 51.730469 51.703125 C 52.679688 50.753906 53.65625 49.828125 54.652344 48.925781 C 55.648438 48.023438 56.664062 47.148438 57.703125 46.296875 C 58.746094 45.445312 59.804688 44.617188 60.882812 43.820312 C 61.964844 43.019531 63.0625 42.246094 64.183594 41.5 C 65.300781 40.753906 66.433594 40.039062 67.589844 39.347656 C 68.742188 38.65625 69.910156 37.996094 71.097656 37.363281 C 72.285156 36.730469 73.484375 36.125 74.699219 35.550781 C 75.914062 34.980469 77.144531 34.433594 78.386719 33.921875 C 79.628906 33.40625 80.882812 32.925781 82.148438 32.472656 C 83.414062 32.019531 84.691406 31.597656 85.980469 31.210938 C 87.265625 30.820312 88.5625 30.460938 89.867188 30.136719 C 91.171875 29.808594 92.480469 29.515625 93.800781 29.253906 C 95.121094 28.992188 96.445312 28.761719 97.773438 28.566406 C 99.105469 28.367188 100.4375 28.203125 101.777344 28.074219 C 103.117188 27.941406 104.457031 27.84375 105.800781 27.777344 C 107.140625 27.710938 108.484375 27.675781 109.832031 27.675781 C 111.175781 27.675781 112.519531 27.710938 113.863281 27.777344 C 115.207031 27.84375 116.546875 27.941406 117.882812 28.074219 C 119.222656 28.203125 120.558594 28.367188 121.886719 28.566406 C 123.21875 28.761719 124.542969 28.992188 125.859375 29.253906 C 127.179688 29.515625 128.492188 29.808594 129.796875 30.136719 C 131.101562 30.460938 132.394531 30.820312 133.683594 31.210938 C 134.96875 31.597656 136.246094 32.019531 137.511719 32.472656 C 138.777344 32.925781 140.03125 33.40625 141.273438 33.921875 C 142.515625 34.433594 143.746094 34.980469 144.960938 35.550781 C 146.175781 36.125 147.378906 36.730469 148.5625 37.363281 C 149.75 37.996094 150.917969 38.65625 152.074219 39.347656 C 153.226562 40.039062 154.363281 40.753906 155.480469 41.5 C 156.597656 42.246094 157.695312 43.019531 158.777344 43.820312 C 159.855469 44.617188 160.917969 45.445312 161.957031 46.296875 C 162.996094 47.148438 164.015625 48.023438 165.011719 48.925781 C 166.007812 49.828125 166.980469 50.753906 167.929688 51.703125 C 168.882812 52.652344 169.808594 53.625 170.710938 54.617188 C 171.613281 55.613281 172.492188 56.628906 173.347656 57.667969 C 174.199219 58.703125 175.027344 59.761719 175.828125 60.839844 C 176.628906 61.917969 177.402344 63.015625 178.148438 64.132812 C 178.898438 65.25 179.617188 66.382812 180.308594 67.535156 C 181 68.683594 181.660156 69.851562 182.292969 71.035156 C 182.929688 72.21875 183.53125 73.417969 184.109375 74.632812 C 184.683594 75.847656 185.226562 77.074219 185.742188 78.3125 C 186.257812 79.554688 186.742188 80.804688 187.195312 82.070312 C 187.648438 83.332031 188.070312 84.609375 188.457031 85.890625 C 188.847656 87.175781 189.207031 88.46875 189.535156 89.773438 C 189.859375 91.074219 190.15625 92.382812 190.417969 93.699219 C 190.679688 95.015625 190.910156 96.339844 191.109375 97.667969 C 191.304688 98.996094 191.46875 100.328125 191.601562 101.664062 C 191.734375 103 191.832031 104.335938 191.898438 105.679688 C 191.964844 107.019531 191.996094 108.359375 191.996094 109.703125 Z M 191.996094 109.703125 " fill-opacity="1" fill-rule="nonzero"/><path fill="#ffffff" d="M 99.28125 82.90625 L 96.082031 69.429688 C 95.898438 68.660156 95.640625 67.917969 95.300781 67.203125 C 94.960938 66.492188 94.550781 65.820312 94.066406 65.191406 C 93.585938 64.5625 93.042969 63.992188 92.441406 63.480469 C 91.839844 62.964844 91.1875 62.519531 90.492188 62.144531 C 89.796875 61.765625 89.066406 61.46875 88.308594 61.246094 C 87.546875 61.019531 86.773438 60.878906 85.984375 60.820312 C 85.191406 60.761719 84.40625 60.785156 83.621094 60.890625 C 82.835938 60.996094 82.070312 61.183594 81.324219 61.453125 L 73.949219 64.101562 C 73.355469 64.316406 72.78125 64.582031 72.226562 64.890625 C 71.675781 65.203125 71.15625 65.558594 70.664062 65.957031 C 70.171875 66.359375 69.714844 66.796875 69.300781 67.273438 C 68.882812 67.75 68.507812 68.257812 68.175781 68.796875 C 67.84375 69.335938 67.558594 69.898438 67.324219 70.484375 C 67.085938 71.074219 66.902344 71.675781 66.765625 72.292969 C 66.632812 72.914062 66.550781 73.539062 66.523438 74.171875 C 66.496094 74.800781 66.519531 75.433594 66.597656 76.0625 C 69.167969 96.90625 80.996094 147.332031 135.398438 158.410156 C 136.480469 158.632812 137.566406 158.691406 138.664062 158.59375 C 139.761719 158.496094 140.824219 158.238281 141.847656 157.832031 C 142.867188 157.421875 143.8125 156.871094 144.671875 156.1875 C 145.535156 155.5 146.277344 154.703125 146.90625 153.800781 L 151.136719 147.695312 C 151.558594 147.089844 151.914062 146.449219 152.210938 145.773438 C 152.503906 145.09375 152.726562 144.398438 152.882812 143.675781 C 153.039062 142.957031 153.125 142.226562 153.136719 141.488281 C 153.148438 140.75 153.089844 140.019531 152.957031 139.292969 C 152.824219 138.570312 152.621094 137.863281 152.351562 137.175781 C 152.078125 136.492188 151.746094 135.839844 151.34375 135.21875 C 150.945312 134.597656 150.488281 134.023438 149.972656 133.496094 C 149.460938 132.964844 148.898438 132.488281 148.292969 132.070312 L 148.21875 132.019531 L 138.917969 125.699219 C 138.417969 125.359375 137.894531 125.0625 137.347656 124.804688 C 136.796875 124.550781 136.230469 124.339844 135.648438 124.175781 C 135.066406 124.011719 134.476562 123.894531 133.875 123.824219 C 133.273438 123.753906 132.671875 123.734375 132.066406 123.761719 C 131.460938 123.789062 130.863281 123.867188 130.269531 123.992188 C 129.679688 124.117188 129.101562 124.285156 128.535156 124.503906 C 127.972656 124.722656 127.429688 124.984375 126.90625 125.289062 C 126.382812 125.59375 125.890625 125.9375 125.421875 126.324219 C 124.960938 126.707031 124.46875 127.050781 123.949219 127.355469 C 123.429688 127.660156 122.890625 127.917969 122.332031 128.136719 C 121.769531 128.355469 121.195312 128.527344 120.609375 128.652344 C 120.019531 128.777344 119.425781 128.855469 118.824219 128.886719 C 118.222656 128.917969 117.625 128.898438 117.027344 128.832031 C 116.429688 128.765625 115.839844 128.652344 115.257812 128.492188 C 114.679688 128.332031 114.117188 128.128906 113.570312 127.875 C 113.023438 127.625 112.5 127.332031 112 127 C 106.34375 123.191406 98.683594 116.882812 93.710938 108.132812 C 93.148438 107.152344 92.746094 106.109375 92.5 105.007812 C 92.253906 103.90625 92.171875 102.792969 92.261719 101.667969 C 92.351562 100.539062 92.601562 99.453125 93.019531 98.402344 C 93.4375 97.351562 94 96.386719 94.707031 95.507812 L 97.101562 92.535156 C 97.636719 91.871094 98.089844 91.152344 98.464844 90.382812 C 98.835938 89.609375 99.117188 88.808594 99.304688 87.972656 C 99.496094 87.140625 99.585938 86.296875 99.582031 85.441406 C 99.578125 84.585938 99.476562 83.742188 99.28125 82.90625 Z M 99.28125 82.90625 " fill-opacity="1" fill-rule="nonzero"/></svg>